<svg width="77" height="24" viewBox="0 0 77 24" fill="none" xmlns="http://www.w3.org/2000/svg">
<path d="M2.25062 6.97027C2.33314 7.57586 3.04896 7.97958 3.92569 7.97958C4.84781 7.97958 5.44604 7.58762 5.44604 7.0565C5.44604 6.56654 5.05409 6.32744 4.00202 6.1197L2.78491 5.89236C1.07064 5.58074 0.187724 4.69881 0.187724 3.35829C0.187724 1.64343 1.73489 0.540039 3.8865 0.540039C6.21344 0.540039 7.58733 1.61207 7.61209 3.27205H5.42748C5.3821 2.62923 4.75704 2.24314 3.90713 2.24314C3.05721 2.24314 2.53324 2.59787 2.53324 3.13682C2.53324 3.61503 2.94582 3.87764 3.9195 4.06775L5.12423 4.28137C6.96227 4.61846 7.78743 5.40828 7.78743 6.80564C7.78743 8.5695 6.25883 9.68268 3.86793 9.68268C1.47703 9.68268 0.0288805 8.68904 0 6.97027H2.25062Z" fill="#F0F0F0"/>
<path d="M15.7585 9.53375V5.97665H12.0452V9.53375H9.68736V0.698803H12.0514V4.1638H15.7647V0.698803H18.1225V9.53375H15.7585Z" fill="#F0F0F0"/>
<path d="M19.8059 9.53375L22.927 0.698803H25.8151L28.9507 9.53375H26.434L25.846 7.59351H22.8094L19.8059 9.53375ZM23.2653 5.97665H25.386L24.3546 2.57241H24.303L23.2653 5.97665Z" fill="#F0F0F0"/>
<path d="M30.6319 9.53375V0.698803H34.6608C36.6577 0.698803 38.0109 1.92958 38.0109 3.83454C38.0109 5.73951 36.5875 6.95069 34.5184 6.95069H32.9981L30.6319 9.53375ZM32.9981 5.26131H34.0295C35.0342 5.26131 35.6262 4.76547 35.6262 3.84042C35.6262 2.91538 35.0342 2.42542 34.0419 2.42542H33.0105L32.9981 5.26131Z" fill="#F0F0F0"/>
<path d="M48.7813 5.11825C48.7813 7.93454 47.0093 9.68663 44.1914 9.68663C41.3734 9.68663 39.5973 7.93454 39.5973 5.11825C39.5973 2.30196 41.3755 0.543989 44.1914 0.543989C47.0072 0.543989 48.7813 2.30196 48.7813 5.11825ZM42.0067 5.11825C42.0067 6.79587 42.8649 7.86202 44.1914 7.86202C45.5178 7.86202 46.378 6.79587 46.378 5.11825C46.378 3.44063 45.5137 2.37448 44.1914 2.37448C42.869 2.37448 42.0067 3.44259 42.0067 5.11825Z" fill="#F0F0F0"/>
<path d="M53.1897 2.97025L54.3676 7.33481H54.4192L56.2057 0.698803H58.7967L55.8302 9.53375H52.8535L49.8891 0.698803" fill="#F0F0F0"/>
<path d="M58.8792 9.53375L62.0045 0.698803H64.8925L68.0178 9.53375H65.5114L64.9235 7.59351H61.8828L58.8792 9.53375ZM62.3407 5.97665H64.4614L63.4299 2.57241H63.3784L62.3407 5.97665Z" fill="#F0F0F0"/>
<path d="M72.0714 7.7209H75.9187V9.53375H69.7053V0.698803" fill="#F0F0F0"/>
<path d="M0.065918 21.3751L3.25103 12.3736H6.19891L9.38402 21.3751H6.8219L6.21748 19.3977H3.12313L0.065918 21.3751ZM3.58934 17.7514H5.75126L4.69918 14.2825H4.64761L3.58934 17.7514Z" fill="#F0F0F0"/>
<path d="M22.8877 16.4657V17.5711C22.8877 20.0287 21.2849 21.5319 18.5866 21.5319C15.6635 21.5319 13.9038 19.8171 13.9038 16.8597C13.9038 13.9395 15.6635 12.2168 18.5268 12.2168C20.8249 12.2168 22.5453 13.5083 22.7887 15.3525H20.4061C20.1688 14.5549 19.4592 14.0688 18.533 14.0688C17.1673 14.0688 16.3607 15.084 16.3607 16.8381C16.3607 18.5922 17.254 19.7014 18.6299 19.7014C19.7212 19.7014 20.4865 19.0899 20.5484 18.1845V18.0473H18.8156" fill="#F0F0F0"/>
<path d="M35.0196 21.3751H28.5236V12.3736H35.0196V14.2217H30.9351V16.013H34.7762V17.6965H30.9351V19.5309H35.0196V21.3751Z" fill="#F0F0F0"/>
<path d="M40.8205 21.3751V12.3736H42.7431L46.7637 17.6083H46.8153V12.3736H49.101V21.3751H47.1969L43.1578 16.0836H43.1062V21.3751H40.8205Z" fill="#F0F0F0"/>
<path d="M54.4232 16.8851C54.4232 13.9454 56.1994 12.2442 59.0132 12.2442C61.4041 12.2442 63.2174 13.7063 63.2896 15.8268H60.9771C60.8595 14.7705 60.0673 14.063 59.0132 14.063C57.7032 14.063 56.8719 15.1272 56.8719 16.8695C56.8719 18.6118 57.697 19.7093 59.0276 19.7093C60.0818 19.7093 60.8492 19.0488 60.9997 17.9983H63.3102C63.1988 20.1326 61.4536 21.5378 59.0214 21.5378C56.1849 21.5319 54.4232 19.821 54.4232 16.8851Z" fill="#F0F0F0"/>
<path d="M70.5138 21.3751V18.2825L67.2503 12.3736H69.8372L71.7206 16.1169H71.7681L73.6453 12.3736H76.1868L72.9233 18.2825V21.3751H70.5138Z" fill="#F0F0F0"/>
</svg>
