<svg width="14" height="14" viewBox="0 0 14 14" fill="none" xmlns="http://www.w3.org/2000/svg">
<path d="M12.1406 7.00012C12.1406 7.08714 12.106 7.1706 12.0445 7.23214C11.9829 7.29367 11.8995 7.32824 11.8125 7.32824H2.97988L6.35683 10.7057C6.38907 10.7358 6.41493 10.772 6.43286 10.8123C6.45079 10.8525 6.46044 10.896 6.46121 10.94C6.46199 10.9841 6.45389 11.0278 6.43738 11.0687C6.42088 11.1095 6.39632 11.1467 6.36516 11.1778C6.334 11.209 6.29689 11.2335 6.25603 11.25C6.21517 11.2665 6.17141 11.2747 6.12735 11.2739C6.08329 11.2731 6.03984 11.2635 5.99959 11.2455C5.95935 11.2276 5.92312 11.2017 5.89308 11.1695L1.95558 7.23199C1.89413 7.17047 1.85962 7.08707 1.85962 7.00012C1.85962 6.91316 1.89413 6.82976 1.95558 6.76824L5.89308 2.83074C5.95528 2.77278 6.03755 2.74123 6.12256 2.74273C6.20757 2.74423 6.28867 2.77866 6.34879 2.83878C6.40891 2.8989 6.44334 2.98001 6.44484 3.06501C6.44634 3.15002 6.41479 3.23229 6.35683 3.29449L2.97988 6.67199H11.8125C11.8995 6.67199 11.9829 6.70656 12.0445 6.7681C12.106 6.82963 12.1406 6.91309 12.1406 7.00012Z" fill="#4B4B4B"/>
</svg>
