<svg width="24" height="24" viewBox="0 0 24 24" fill="none" xmlns="http://www.w3.org/2000/svg">
<path d="M20.8125 12.0001C20.8125 12.1493 20.7532 12.2924 20.6477 12.3979C20.5423 12.5034 20.3992 12.5626 20.25 12.5626H5.10843L10.8975 18.3526C10.9528 18.4041 10.9971 18.4662 11.0278 18.5352C11.0586 18.6042 11.0751 18.6787 11.0764 18.7542C11.0778 18.8298 11.0639 18.9048 11.0356 18.9748C11.0073 19.0449 10.9652 19.1085 10.9118 19.1619C10.8584 19.2153 10.7947 19.2574 10.7247 19.2857C10.6547 19.314 10.5796 19.3279 10.5041 19.3266C10.4286 19.3252 10.3541 19.3087 10.2851 19.278C10.2161 19.2472 10.154 19.2029 10.1025 19.1476L3.35249 12.3976C3.24716 12.2922 3.18799 12.1492 3.18799 12.0001C3.18799 11.8511 3.24716 11.7081 3.35249 11.6026L10.1025 4.85263C10.2091 4.75327 10.3502 4.69918 10.4959 4.70175C10.6416 4.70432 10.7807 4.76335 10.8837 4.86641C10.9868 4.96947 11.0458 5.10851 11.0484 5.25424C11.0509 5.39996 10.9969 5.541 10.8975 5.64763L5.10843 11.4376H20.25C20.3992 11.4376 20.5423 11.4969 20.6477 11.6024C20.7532 11.7079 20.8125 11.8509 20.8125 12.0001Z" fill="#DD5F43"/>
</svg>
