<svg width="24" height="24" viewBox="0 0 24 24" fill="none" xmlns="http://www.w3.org/2000/svg">
<path d="M8.60249 5.64798C8.49715 5.54251 8.43799 5.39954 8.43799 5.25048C8.43799 5.10142 8.49715 4.95845 8.60249 4.85298L11.6025 1.85298C11.708 1.74764 11.8509 1.68848 12 1.68848C12.1491 1.68848 12.292 1.74764 12.3975 1.85298L15.3975 4.85298C15.4528 4.90448 15.4971 4.96658 15.5278 5.03558C15.5586 5.10458 15.5751 5.17906 15.5764 5.25459C15.5778 5.33012 15.5639 5.40514 15.5356 5.47518C15.5073 5.54522 15.4652 5.60885 15.4118 5.66226C15.3584 5.71567 15.2947 5.75778 15.2247 5.78607C15.1546 5.81436 15.0796 5.82826 15.0041 5.82692C14.9286 5.82559 14.8541 5.80906 14.7851 5.77832C14.7161 5.74757 14.654 5.70325 14.6025 5.64798L12.5625 3.60892V9.00048C12.5625 9.14967 12.5032 9.29274 12.3977 9.39823C12.2923 9.50372 12.1492 9.56298 12 9.56298C11.8508 9.56298 11.7077 9.50372 11.6022 9.39823C11.4968 9.29274 11.4375 9.14967 11.4375 9.00048V3.60892L9.39749 5.64798C9.29202 5.75332 9.14906 5.81249 8.99999 5.81249C8.85093 5.81249 8.70796 5.75332 8.60249 5.64798ZM14.6025 18.353L12.5625 20.392V15.0005C12.5625 14.8513 12.5032 14.7082 12.3977 14.6027C12.2923 14.4972 12.1492 14.438 12 14.438C11.8508 14.438 11.7077 14.4972 11.6022 14.6027C11.4968 14.7082 11.4375 14.8513 11.4375 15.0005V20.392L9.39749 18.353C9.29086 18.2536 9.14983 18.1995 9.0041 18.2021C8.85838 18.2047 8.71934 18.2637 8.61628 18.3668C8.51322 18.4698 8.45418 18.6089 8.45161 18.7546C8.44904 18.9003 8.50313 19.0414 8.60249 19.148L11.6025 22.148C11.708 22.2533 11.8509 22.3125 12 22.3125C12.1491 22.3125 12.292 22.2533 12.3975 22.148L15.3975 19.148C15.4969 19.0414 15.5509 18.9003 15.5484 18.7546C15.5458 18.6089 15.4868 18.4698 15.3837 18.3668C15.2806 18.2637 15.1416 18.2047 14.9959 18.2021C14.8502 18.1995 14.7091 18.2536 14.6025 18.353ZM22.1475 11.603L19.1475 8.60298C19.0409 8.50362 18.8998 8.44953 18.7541 8.4521C18.6084 8.45467 18.4693 8.51371 18.3663 8.61677C18.2632 8.71982 18.2042 8.85886 18.2016 9.00459C18.199 9.15032 18.2531 9.29135 18.3525 9.39798L20.3916 11.438H15C14.8508 11.438 14.7077 11.4972 14.6022 11.6027C14.4968 11.7082 14.4375 11.8513 14.4375 12.0005C14.4375 12.1497 14.4968 12.2927 14.6022 12.3982C14.7077 12.5037 14.8508 12.563 15 12.563H20.3916L18.3525 14.603C18.2972 14.6545 18.2529 14.7166 18.2222 14.7856C18.1914 14.8546 18.1749 14.9291 18.1735 15.0046C18.1722 15.0801 18.1861 15.1551 18.2144 15.2252C18.2427 15.2952 18.2848 15.3588 18.3382 15.4123C18.3916 15.4657 18.4553 15.5078 18.5253 15.5361C18.5953 15.5644 18.6704 15.5783 18.7459 15.5769C18.8214 15.5756 18.8959 15.5591 18.9649 15.5283C19.0339 15.4976 19.096 15.4532 19.1475 15.398L22.1475 12.398C22.2528 12.2925 22.312 12.1495 22.312 12.0005C22.312 11.8514 22.2528 11.7084 22.1475 11.603ZM3.60843 12.563H8.99999C9.14918 12.563 9.29225 12.5037 9.39774 12.3982C9.50323 12.2927 9.56249 12.1497 9.56249 12.0005C9.56249 11.8513 9.50323 11.7082 9.39774 11.6027C9.29225 11.4972 9.14918 11.438 8.99999 11.438H3.60843L5.64749 9.39798C5.74685 9.29135 5.80095 9.15032 5.79837 9.00459C5.7958 8.85886 5.73677 8.71982 5.63371 8.61677C5.53065 8.51371 5.39161 8.45467 5.24588 8.4521C5.10016 8.44953 4.95912 8.50362 4.85249 8.60298L1.85249 11.603C1.74716 11.7084 1.68799 11.8514 1.68799 12.0005C1.68799 12.1495 1.74716 12.2925 1.85249 12.398L4.85249 15.398C4.95912 15.4973 5.10016 15.5514 5.24588 15.5489C5.39161 15.5463 5.53065 15.4873 5.63371 15.3842C5.73677 15.2811 5.7958 15.1421 5.79837 14.9964C5.80095 14.8506 5.74685 14.7096 5.64749 14.603L3.60843 12.563Z" fill="white"/>
</svg>
