<svg width="24" height="24" viewBox="0 0 24 24" fill="none" xmlns="http://www.w3.org/2000/svg">
<path d="M8.60249 5.64749C8.49715 5.54202 8.43799 5.39906 8.43799 5.24999C8.43799 5.10093 8.49715 4.95796 8.60249 4.85249L11.6025 1.85249C11.708 1.74716 11.8509 1.68799 12 1.68799C12.1491 1.68799 12.292 1.74716 12.3975 1.85249L15.3975 4.85249C15.4528 4.90399 15.4971 4.96609 15.5278 5.03509C15.5586 5.10409 15.5751 5.17857 15.5764 5.2541C15.5778 5.32963 15.5639 5.40465 15.5356 5.47469C15.5073 5.54473 15.4652 5.60836 15.4118 5.66177C15.3584 5.71519 15.2947 5.75729 15.2247 5.78558C15.1546 5.81388 15.0796 5.82777 15.0041 5.82644C14.9286 5.8251 14.8541 5.80857 14.7851 5.77783C14.7161 5.74708 14.654 5.70276 14.6025 5.64749L12.5625 3.60843V8.99999C12.5625 9.14918 12.5032 9.29225 12.3977 9.39774C12.2923 9.50323 12.1492 9.56249 12 9.56249C11.8508 9.56249 11.7077 9.50323 11.6022 9.39774C11.4968 9.29225 11.4375 9.14918 11.4375 8.99999V3.60843L9.39749 5.64749C9.29202 5.75283 9.14906 5.812 8.99999 5.812C8.85093 5.812 8.70796 5.75283 8.60249 5.64749ZM14.6025 18.3525L12.5625 20.3916V15C12.5625 14.8508 12.5032 14.7077 12.3977 14.6022C12.2923 14.4968 12.1492 14.4375 12 14.4375C11.8508 14.4375 11.7077 14.4968 11.6022 14.6022C11.4968 14.7077 11.4375 14.8508 11.4375 15V20.3916L9.39749 18.3525C9.29086 18.2531 9.14983 18.199 9.0041 18.2016C8.85838 18.2042 8.71934 18.2632 8.61628 18.3663C8.51322 18.4693 8.45418 18.6084 8.45161 18.7541C8.44904 18.8998 8.50313 19.0409 8.60249 19.1475L11.6025 22.1475C11.708 22.2528 11.8509 22.312 12 22.312C12.1491 22.312 12.292 22.2528 12.3975 22.1475L15.3975 19.1475C15.4969 19.0409 15.5509 18.8998 15.5484 18.7541C15.5458 18.6084 15.4868 18.4693 15.3837 18.3663C15.2806 18.2632 15.1416 18.2042 14.9959 18.2016C14.8502 18.199 14.7091 18.2531 14.6025 18.3525ZM22.1475 11.6025L19.1475 8.60249C19.0409 8.50313 18.8998 8.44904 18.7541 8.45161C18.6084 8.45418 18.4693 8.51322 18.3663 8.61628C18.2632 8.71934 18.2042 8.85838 18.2016 9.0041C18.199 9.14983 18.2531 9.29086 18.3525 9.39749L20.3916 11.4375H15C14.8508 11.4375 14.7077 11.4968 14.6022 11.6022C14.4968 11.7077 14.4375 11.8508 14.4375 12C14.4375 12.1492 14.4968 12.2923 14.6022 12.3977C14.7077 12.5032 14.8508 12.5625 15 12.5625H20.3916L18.3525 14.6025C18.2972 14.654 18.2529 14.7161 18.2222 14.7851C18.1914 14.8541 18.1749 14.9286 18.1735 15.0041C18.1722 15.0796 18.1861 15.1546 18.2144 15.2247C18.2427 15.2947 18.2848 15.3584 18.3382 15.4118C18.3916 15.4652 18.4553 15.5073 18.5253 15.5356C18.5953 15.5639 18.6704 15.5778 18.7459 15.5764C18.8214 15.5751 18.8959 15.5586 18.9649 15.5278C19.0339 15.4971 19.096 15.4528 19.1475 15.3975L22.1475 12.3975C22.2528 12.292 22.312 12.1491 22.312 12C22.312 11.8509 22.2528 11.708 22.1475 11.6025ZM3.60843 12.5625H8.99999C9.14918 12.5625 9.29225 12.5032 9.39774 12.3977C9.50323 12.2923 9.56249 12.1492 9.56249 12C9.56249 11.8508 9.50323 11.7077 9.39774 11.6022C9.29225 11.4968 9.14918 11.4375 8.99999 11.4375H3.60843L5.64749 9.39749C5.74685 9.29086 5.80095 9.14983 5.79837 9.0041C5.7958 8.85838 5.73677 8.71934 5.63371 8.61628C5.53065 8.51322 5.39161 8.45418 5.24588 8.45161C5.10016 8.44904 4.95912 8.50313 4.85249 8.60249L1.85249 11.6025C1.74716 11.708 1.68799 11.8509 1.68799 12C1.68799 12.1491 1.74716 12.292 1.85249 12.3975L4.85249 15.3975C4.95912 15.4969 5.10016 15.5509 5.24588 15.5484C5.39161 15.5458 5.53065 15.4868 5.63371 15.3837C5.73677 15.2806 5.7958 15.1416 5.79837 14.9959C5.80095 14.8502 5.74685 14.7091 5.64749 14.6025L3.60843 12.5625Z" fill="white"/>
</svg>
