<svg width="17" height="16" viewBox="0 0 17 16" fill="none" xmlns="http://www.w3.org/2000/svg">
<path d="M13.1747 4V10.5C13.1747 10.5995 13.1352 10.6948 13.0649 10.7652C12.9946 10.8355 12.8992 10.875 12.7997 10.875C12.7003 10.875 12.6049 10.8355 12.5346 10.7652C12.4642 10.6948 12.4247 10.5995 12.4247 10.5V4.905L5.06473 12.265C4.99364 12.3312 4.89962 12.3673 4.80247 12.3656C4.70532 12.3639 4.61262 12.3245 4.54392 12.2558C4.47521 12.1871 4.43585 12.0944 4.43414 11.9973C4.43243 11.9001 4.46849 11.8061 4.53473 11.735L11.8947 4.375H6.29973C6.20027 4.375 6.10489 4.33549 6.03456 4.26516C5.96424 4.19484 5.92473 4.09946 5.92473 4C5.92473 3.90054 5.96424 3.80516 6.03456 3.73483C6.10489 3.66451 6.20027 3.625 6.29973 3.625H12.7997C12.8992 3.625 12.9946 3.66451 13.0649 3.73483C13.1352 3.80516 13.1747 3.90054 13.1747 4Z" fill="#4B4B4B"/>
</svg>
