<svg width="16" height="17" viewBox="0 0 16 17" fill="none" xmlns="http://www.w3.org/2000/svg">
<path d="M12.3749 4.5V11C12.3749 11.0995 12.3354 11.1948 12.2651 11.2652C12.1948 11.3355 12.0994 11.375 11.9999 11.375C11.9005 11.375 11.8051 11.3355 11.7348 11.2652C11.6644 11.1948 11.6249 11.0995 11.6249 11V5.405L4.26492 12.765C4.19384 12.8312 4.09981 12.8673 4.00266 12.8656C3.90551 12.8639 3.81282 12.8245 3.74411 12.7558C3.67541 12.6871 3.63605 12.5944 3.63434 12.4973C3.63262 12.4001 3.66868 12.3061 3.73492 12.235L11.0949 4.875H5.49992C5.40047 4.875 5.30508 4.83549 5.23476 4.76516C5.16443 4.69484 5.12492 4.59946 5.12492 4.5C5.12492 4.40054 5.16443 4.30516 5.23476 4.23483C5.30508 4.16451 5.40047 4.125 5.49992 4.125H11.9999C12.0994 4.125 12.1948 4.16451 12.2651 4.23483C12.3354 4.30516 12.3749 4.40054 12.3749 4.5Z" fill="#F3F3F3"/>
</svg>
