<svg width="24" height="24" viewBox="0 0 24 24" fill="none" xmlns="http://www.w3.org/2000/svg">
<path d="M20.8125 11.9996C20.8125 12.1488 20.7532 12.2919 20.6477 12.3974C20.5423 12.5029 20.3992 12.5621 20.25 12.5621H5.10843L10.8975 18.3521C10.9528 18.4036 10.9971 18.4657 11.0278 18.5347C11.0586 18.6037 11.0751 18.6782 11.0764 18.7538C11.0778 18.8293 11.0639 18.9043 11.0356 18.9743C11.0073 19.0444 10.9652 19.108 10.9118 19.1614C10.8584 19.2148 10.7947 19.2569 10.7247 19.2852C10.6547 19.3135 10.5796 19.3274 10.5041 19.3261C10.4286 19.3248 10.3541 19.3082 10.2851 19.2775C10.2161 19.2467 10.154 19.2024 10.1025 19.1471L3.35249 12.3971C3.24716 12.2917 3.18799 12.1487 3.18799 11.9996C3.18799 11.8506 3.24716 11.7076 3.35249 11.6021L10.1025 4.85214C10.2091 4.75278 10.3502 4.69869 10.4959 4.70126C10.6416 4.70383 10.7807 4.76286 10.8837 4.86592C10.9868 4.96898 11.0458 5.10802 11.0484 5.25375C11.0509 5.39947 10.9969 5.54051 10.8975 5.64714L5.10843 11.4371H20.25C20.3992 11.4371 20.5423 11.4964 20.6477 11.6019C20.7532 11.7074 20.8125 11.8505 20.8125 11.9996Z" fill="#DD5F43"/>
</svg>
