<svg width="14" height="14" viewBox="0 0 14 14" fill="none" xmlns="http://www.w3.org/2000/svg">
<path d="M10.8282 3.5V9.1875C10.8282 9.27452 10.7937 9.35798 10.7321 9.41952C10.6706 9.48105 10.5871 9.51562 10.5001 9.51562C10.4131 9.51562 10.3296 9.48105 10.2681 9.41952C10.2066 9.35798 10.172 9.27452 10.172 9.1875V4.29188L3.73199 10.7319C3.66979 10.7898 3.58752 10.8214 3.50251 10.8199C3.41751 10.8184 3.3364 10.784 3.27628 10.7238C3.21616 10.6637 3.18173 10.5826 3.18023 10.4976C3.17873 10.4126 3.21028 10.3303 3.26824 10.2681L9.70824 3.82812H4.81262C4.72559 3.82812 4.64213 3.79355 4.5806 3.73202C4.51906 3.67048 4.48449 3.58702 4.48449 3.5C4.48449 3.41298 4.51906 3.32952 4.5806 3.26798C4.64213 3.20645 4.72559 3.17188 4.81262 3.17188H10.5001C10.5871 3.17188 10.6706 3.20645 10.7321 3.26798C10.7937 3.32952 10.8282 3.41298 10.8282 3.5Z" fill="#4B4B4B"/>
</svg>
