<svg width="24" height="24" viewBox="0 0 24 24" fill="none" xmlns="http://www.w3.org/2000/svg">
<path d="M18.5624 6V15.75C18.5624 15.8992 18.5031 16.0423 18.3976 16.1477C18.2921 16.2532 18.1491 16.3125 17.9999 16.3125C17.8507 16.3125 17.7076 16.2532 17.6021 16.1477C17.4966 16.0423 17.4374 15.8992 17.4374 15.75V7.3575L6.39738 18.3975C6.29075 18.4969 6.14972 18.551 6.00399 18.5484C5.85827 18.5458 5.71923 18.4868 5.61617 18.3837C5.51311 18.2807 5.45407 18.1416 5.4515 17.9959C5.44893 17.8502 5.50302 17.7091 5.60238 17.6025L16.6424 6.5625H8.24988C8.1007 6.5625 7.95763 6.50324 7.85214 6.39775C7.74665 6.29226 7.68738 6.14918 7.68738 6C7.68738 5.85082 7.74665 5.70774 7.85214 5.60225C7.95763 5.49676 8.1007 5.4375 8.24988 5.4375H17.9999C18.1491 5.4375 18.2921 5.49676 18.3976 5.60225C18.5031 5.70774 18.5624 5.85082 18.5624 6Z" fill="#DD5F43"/>
</svg>
