<svg width="15" height="14" viewBox="0 0 15 14" fill="none" xmlns="http://www.w3.org/2000/svg">
<path d="M11.628 3.5V9.1875C11.628 9.27452 11.5935 9.35798 11.5319 9.41952C11.4704 9.48105 11.3869 9.51562 11.2999 9.51562C11.2129 9.51562 11.1294 9.48105 11.0679 9.41952C11.0064 9.35798 10.9718 9.27452 10.9718 9.1875V4.29188L4.5318 10.7319C4.46959 10.7898 4.38732 10.8214 4.30232 10.8199C4.21731 10.8184 4.1362 10.784 4.07609 10.7238C4.01597 10.6637 3.98153 10.5826 3.98003 10.4976C3.97853 10.4126 4.01009 10.3303 4.06805 10.2681L10.508 3.82812H5.61242C5.5254 3.82812 5.44194 3.79355 5.3804 3.73202C5.31887 3.67048 5.2843 3.58702 5.2843 3.5C5.2843 3.41298 5.31887 3.32952 5.3804 3.26798C5.44194 3.20645 5.5254 3.17188 5.61242 3.17188H11.2999C11.3869 3.17188 11.4704 3.20645 11.5319 3.26798C11.5935 3.32952 11.628 3.41298 11.628 3.5Z" fill="#C6C6C6"/>
</svg>
