<svg width="50" height="35" viewBox="0 0 50 35" fill="none" xmlns="http://www.w3.org/2000/svg">
<path d="M13.2168 26.1529C14.2678 26.1529 15.2108 25.9801 16.0459 25.6345C16.8809 25.2746 17.5864 24.7707 18.1623 24.1228C18.7382 23.4749 19.1773 22.6903 19.4796 21.7689C19.782 20.8474 19.9332 19.8108 19.9332 18.659V0H26.412V18.659C26.412 20.5595 26.1024 22.3087 25.4834 23.9069C24.8787 25.4906 24.0077 26.8584 22.8702 28.0101C21.7328 29.1619 20.3507 30.0617 18.7238 30.7096C17.0969 31.3575 15.2613 31.6814 13.2168 31.6814C11.1723 31.6814 9.3295 31.3575 7.6882 30.7096C6.06131 30.0617 4.67918 29.1619 3.54176 28.0101C2.40436 26.8584 1.52612 25.4906 0.907036 23.9069C0.302343 22.3087 0 20.5595 0 18.659V0H6.47884V18.659C6.47884 19.8108 6.63002 20.8474 6.9323 21.7689C7.23466 22.6903 7.67378 23.4749 8.24967 24.1228C8.82562 24.7707 9.5311 25.2746 10.3661 25.6345C11.2012 25.9801 12.1514 26.1529 13.2168 26.1529ZM49.9999 5.22627H40.8432V31.3359H34.3428V5.22627H25.1861V0H49.9999V5.22627Z" fill="#DD5F43"/>
</svg>
