<svg width="294" height="294" viewBox="0 0 294 294" fill="none" xmlns="http://www.w3.org/2000/svg">
<path d="M90.363 140.599H72.5634L71.9276 141.108V156.936H76.8225V150.961L77.2674 150.516H90.3628C93.6683 150.516 95.1941 149.626 95.1941 147.337V143.714C95.1943 141.489 93.6685 140.599 90.363 140.599ZM90.363 146.447C90.363 147.528 89.6636 147.719 88.0744 147.719H77.3311L76.8225 147.274V143.905L77.2674 143.46H88.0742C89.6 143.46 90.3627 143.65 90.3627 144.731L90.363 146.447ZM104.221 143.587L108.48 149.816L108.226 150.389H98.8177L96.402 153.376H110.387L111.404 153.948L113.566 156.936H119.224L106.828 140.408L104.221 143.587ZM160.353 153.758V149.308L160.862 148.863H170.334V146.066H155.331V156.936H177.453V154.139H160.925L160.353 153.758ZM155.331 140.599H177.644V143.65H155.331V140.599ZM130.475 143.523H148.466C148.211 141.235 146.749 140.599 143.189 140.599H130.285C126.216 140.599 124.945 141.362 124.945 144.477V153.122C124.945 156.173 126.216 157 130.285 157H143.189C146.813 157 148.211 156.301 148.338 153.948H130.475L129.967 153.44V143.905L130.475 143.523ZM59.8495 146.956H46.8177L46.4363 146.511V143.714L46.8177 143.396H64.4265L64.6808 142.824C64.1086 141.298 62.5194 140.535 59.6587 140.535H47.3898C43.3214 140.535 42.05 141.298 42.05 144.413V146.257C42.05 149.308 43.3214 150.134 47.3898 150.134H60.4216L60.803 150.516V153.44L60.4852 153.885H41.6685C41.6685 153.885 41.2236 154.139 41.2236 154.203C41.5414 156.364 43.0036 156.936 46.4998 156.936H59.8496C63.918 156.936 65.253 156.173 65.253 153.059V150.834C65.2529 147.782 63.918 146.956 59.8495 146.956ZM191.693 140.535H184.319L183.937 141.298L192.074 147.274C193.6 146.384 195.316 145.494 197.096 144.604L191.693 140.535ZM198.304 151.724L205.488 156.936H212.862L213.179 156.237L202.5 148.418C201.101 149.499 199.639 150.579 198.304 151.724Z" fill="#005288"/>
<path d="M190.613 156.936H183.938L183.366 156.046C187.879 151.66 208.094 132.971 252.021 131C252.021 131 215.214 132.271 190.613 156.936Z" fill="#A7A9AC"/>
<rect x="0.5" y="0.5" width="293" height="293" stroke="#191919" stroke-opacity="0.5"/>
</svg>
