<svg width="50" height="36" viewBox="0 0 50 36" fill="none" xmlns="http://www.w3.org/2000/svg">
<path d="M13.2168 26.6529C14.2678 26.6529 15.2108 26.4801 16.0459 26.1345C16.8809 25.7746 17.5864 25.2707 18.1623 24.6228C18.7382 23.9749 19.1773 23.1903 19.4796 22.2689C19.782 21.3474 19.9332 20.3108 19.9332 19.159V0.5H26.412V19.159C26.412 21.0595 26.1024 22.8087 25.4834 24.4069C24.8787 25.9906 24.0077 27.3584 22.8702 28.5101C21.7328 29.6619 20.3507 30.5617 18.7238 31.2096C17.0969 31.8575 15.2613 32.1814 13.2168 32.1814C11.1723 32.1814 9.3295 31.8575 7.6882 31.2096C6.06131 30.5617 4.67918 29.6619 3.54176 28.5101C2.40436 27.3584 1.52612 25.9906 0.907036 24.4069C0.302343 22.8087 0 21.0595 0 19.159V0.5H6.47884V19.159C6.47884 20.3108 6.63002 21.3474 6.9323 22.2689C7.23466 23.1903 7.67378 23.9749 8.24967 24.6228C8.82562 25.2707 9.5311 25.7746 10.3661 26.1345C11.2012 26.4801 12.1514 26.6529 13.2168 26.6529ZM49.9999 5.72627H40.8432V31.8359H34.3428V5.72627H25.1861V0.5H49.9999V5.72627Z" fill="#DD5F43"/>
</svg>
