<svg width="301" height="27" viewBox="0 0 301 27" fill="none" xmlns="http://www.w3.org/2000/svg">
<path d="M11.9012 22.4001C12.7713 22.4001 13.552 22.2571 14.2432 21.971C14.9345 21.6731 15.5185 21.2559 15.9952 20.7195C16.472 20.1832 16.8355 19.5336 17.0858 18.7709C17.3361 18.0081 17.4612 17.15 17.4612 16.1964V0.75H22.8246V16.1964C22.8246 17.7697 22.5683 19.2178 22.0559 20.5408C21.5553 21.8518 20.8342 22.9841 19.8926 23.9376C18.951 24.891 17.8069 25.6359 16.4601 26.1723C15.1133 26.7086 13.5937 26.9768 11.9012 26.9768C10.2088 26.9768 8.6832 26.7086 7.32448 26.1723C5.97769 25.6359 4.83353 24.891 3.89194 23.9376C2.95037 22.9841 2.22333 21.8518 1.71083 20.5408C1.21025 19.2178 0.959961 17.7697 0.959961 16.1964V0.75H6.32334V16.1964C6.32334 17.15 6.44849 18.0081 6.69873 18.7709C6.94903 19.5336 7.31255 20.1832 7.78928 20.7195C8.26608 21.2559 8.85009 21.6731 9.54133 21.971C10.2326 22.2571 11.0193 22.4001 11.9012 22.4001ZM42.3514 5.07645H34.7712V26.6907H29.39V5.07645H21.8097V0.75H42.3514V5.07645Z" fill="white"/>
<path d="M74.4935 24.5124C72.7034 26.1553 70.386 26.9768 67.5414 26.9768C64.6968 26.9768 62.3672 26.1553 60.5525 24.5124C58.7624 22.8447 57.8673 20.6254 57.8673 17.8544V0.75H61.2881V17.7074C61.2881 19.5217 61.8277 20.9686 62.9066 22.0476C63.9856 23.1022 65.5305 23.6295 67.5414 23.6295C69.5523 23.6295 71.0972 23.1022 72.1761 22.0476C73.2551 20.9686 73.7946 19.5217 73.7946 17.7074V0.75H77.1787V17.8544C77.1787 20.6254 76.2836 22.8447 74.4935 24.5124ZM102.19 26.4985H97.9973L86.8884 14.1393V26.4985H83.4677V0.75H86.8884V12.3735L97.6294 0.75H101.823L90.4565 13.2564L102.19 26.4985ZM121.559 26.4985L115.785 16.6404H109.715V26.4985H106.294V0.75H116.594C118.801 0.75 120.689 1.53482 122.259 3.10407C123.828 4.64898 124.613 6.52508 124.613 8.73205C124.613 10.3997 124.11 11.9199 123.104 13.2931C122.123 14.6666 120.848 15.6351 119.279 16.1991L125.348 26.4985H121.559ZM109.715 3.95024V13.5506H116.594C117.869 13.5506 118.948 13.0846 119.831 12.1531C120.738 11.1965 121.192 10.0562 121.192 8.73205C121.192 7.40794 120.738 6.27995 119.831 5.34807C118.948 4.41618 117.869 3.95024 116.594 3.95024H109.715ZM146.319 0.75V3.98691H138.704V26.4985H135.32V3.98691H127.743V0.75H146.319ZM154.183 23.2616H166.138V26.4985H150.762V0.75H165.954V3.98691H154.183V11.8956H165.034V15.0955H154.183V23.2616ZM186.591 26.4985L180.816 16.6404H174.747V26.4985H171.326V0.75H181.625C183.832 0.75 185.72 1.53482 187.29 3.10407C188.859 4.64898 189.644 6.52508 189.644 8.73205C189.644 10.3997 189.141 11.9199 188.136 13.2931C187.155 14.6666 185.88 15.6351 184.311 16.1991L190.38 26.4985H186.591ZM174.747 3.95024V13.5506H181.625C182.9 13.5506 183.979 13.0846 184.862 12.1531C185.769 11.1965 186.223 10.0562 186.223 8.73205C186.223 7.40794 185.769 6.27995 184.862 5.34807C183.979 4.41618 182.9 3.95024 181.625 3.95024H174.747ZM218.964 0.75V26.4985H215.58V6.37801L207.157 20.3926H206.715L198.292 6.41469V26.4985H194.871V0.75H198.733L206.936 14.3601L215.102 0.75H218.964ZM225.528 0.75H228.949V26.4985H225.528V0.75ZM251.532 0.75H254.953V26.4985H252.194L238.952 7.26086V26.4985H235.531V0.75H238.29L251.532 19.951V0.75ZM278.476 26.4985L276.379 20.7235H264.793L262.696 26.4985H259.055L268.655 0.75H272.517L282.118 26.4985H278.476ZM265.97 17.5232H275.202L270.568 4.83308L265.97 17.5232ZM289.634 23.2616H300.743V26.4985H286.213V0.75H289.634V23.2616Z" fill="white"/>
</svg>
