<svg width="206" height="29" viewBox="0 0 206 29" fill="none" xmlns="http://www.w3.org/2000/svg">
<path d="M12.0667 23.1338C12.9863 23.1338 13.8114 22.9826 14.5421 22.6802C15.2728 22.3653 15.89 21.9244 16.3939 21.3575C16.8979 20.7906 17.2821 20.104 17.5466 19.2978C17.8112 18.4915 17.9435 17.5845 17.9435 16.5766V0.25H23.6124V16.5766C23.6124 18.2396 23.3416 19.7702 22.7999 21.1685C22.2708 22.5543 21.5087 23.7511 20.5134 24.7589C19.5182 25.7667 18.3088 26.554 16.8853 27.1209C15.4618 27.6878 13.8556 27.9713 12.0667 27.9713C10.2778 27.9713 8.66527 27.6878 7.22913 27.1209C5.8056 26.554 4.59624 25.7667 3.60099 24.7589C2.60577 23.7511 1.83731 22.5543 1.29561 21.1685C0.766503 19.7702 0.501953 18.2396 0.501953 16.5766V0.25H6.17094V16.5766C6.17094 17.5845 6.30322 18.4915 6.56772 19.2978C6.83229 20.104 7.21652 20.7906 7.72042 21.3575C8.22438 21.9244 8.84167 22.3653 9.57229 22.6802C10.303 22.9826 11.1344 23.1338 12.0667 23.1338ZM44.2519 4.82299H36.2398V27.6689H30.552V4.82299H22.5398V0.25H44.2519V4.82299Z" fill="#F3F3F3"/>
<path d="M59.9482 21.3858C58.7965 22.4428 57.3057 22.9713 55.4756 22.9713C53.6456 22.9713 52.1469 22.4428 50.9794 21.3858C49.8278 20.313 49.252 18.8852 49.252 17.1025V6.09866H51.4527V17.0079C51.4527 18.1752 51.7998 19.106 52.4939 19.8001C53.1881 20.4786 54.182 20.8178 55.4756 20.8178C56.7693 20.8178 57.7632 20.4786 58.4573 19.8001C59.1515 19.106 59.4986 18.1752 59.4986 17.0079V6.09866H61.6757V17.1025C61.6757 18.8852 61.0998 20.313 59.9482 21.3858ZM77.7665 22.6636H75.0689L67.9222 14.7124V22.6636H65.7215V6.09866H67.9222V13.5765L74.8323 6.09866H77.5299L70.2177 14.1444L77.7665 22.6636ZM90.2272 22.6636L86.5121 16.3215H82.6073V22.6636H80.4067V6.09866H87.0327C88.4525 6.09866 89.6672 6.60356 90.677 7.61311C91.6865 8.607 92.1914 9.81397 92.1914 11.2338C92.1914 12.3066 91.868 13.2847 91.2211 14.1681C90.59 15.0517 89.7698 15.6748 88.7602 16.0376L92.6647 22.6636H90.2272ZM82.6073 8.15748V14.3337H87.0327C87.853 14.3337 88.5471 14.0339 89.1151 13.4347C89.6987 12.8193 89.9908 12.0856 89.9908 11.2338C89.9908 10.3819 89.6987 9.65627 89.1151 9.05675C88.5471 8.45724 87.853 8.15748 87.0327 8.15748H82.6073ZM106.156 6.09866V8.18108H101.257V22.6636H99.0799V8.18108H94.2051V6.09866H106.156ZM111.215 20.5812H118.906V22.6636H109.014V6.09866H118.788V8.18108H111.215V13.269H118.196V15.3276H111.215V20.5812ZM132.064 22.6636L128.349 16.3215H124.444V22.6636H122.244V6.09866H128.87C130.289 6.09866 131.504 6.60356 132.514 7.61311C133.523 8.607 134.028 9.81397 134.028 11.2338C134.028 12.3066 133.705 13.2847 133.058 14.1681C132.427 15.0517 131.607 15.6748 130.597 16.0376L134.502 22.6636H132.064ZM124.444 8.15748V14.3337H128.87C129.69 14.3337 130.384 14.0339 130.952 13.4347C131.536 12.8193 131.828 12.0856 131.828 11.2338C131.828 10.3819 131.536 9.65627 130.952 9.05675C130.384 8.45724 129.69 8.15748 128.87 8.15748H124.444ZM152.891 6.09866V22.6636H150.714V9.71935L145.295 18.7354H145.011L139.592 9.74295V22.6636H137.391V6.09866H139.876L145.153 14.8545L150.406 6.09866H152.891ZM157.114 6.09866H159.315V22.6636H157.114V6.09866ZM173.843 6.09866H176.044V22.6636H174.269L165.75 10.2873V22.6636H163.549V6.09866H165.324L173.843 18.4513V6.09866ZM191.177 22.6636L189.828 18.9483H182.374L181.025 22.6636H178.682L184.859 6.09866H187.343L193.52 22.6636H191.177ZM183.131 16.8895H189.071L186.089 8.72545L183.131 16.8895ZM198.355 20.5812H205.502V22.6636H196.155V6.09866H198.355V20.5812Z" fill="#F3F3F3"/>
</svg>
