<svg width="294" height="294" viewBox="0 0 294 294" fill="none" xmlns="http://www.w3.org/2000/svg">
<path fill-rule="evenodd" clip-rule="evenodd" d="M163.227 160.807C155.244 165.498 143.672 168 133.71 168C119.74 168 107.164 163.882 97.6499 157.032C96.9024 156.493 97.5721 155.759 98.4691 156.179C108.737 160.941 121.433 163.806 134.547 163.806C143.391 163.806 153.121 162.347 162.067 159.32C163.419 158.863 164.549 160.026 163.227 160.807Z" fill="#FF9900"/>
<path fill-rule="evenodd" clip-rule="evenodd" d="M166.546 157.781C165.53 156.741 159.801 157.29 157.229 157.533C156.446 157.609 156.326 157.066 157.032 156.675C161.595 154.115 169.082 154.854 169.955 155.712C170.828 156.575 169.728 162.557 165.44 165.412C164.782 165.851 164.154 165.617 164.447 165.035C165.41 163.119 167.569 158.824 166.546 157.781Z" fill="#FF9900"/>
<path fill-rule="evenodd" clip-rule="evenodd" d="M155.297 138.604V136.115C155.297 135.739 155.583 135.486 155.927 135.486H167.066C167.424 135.486 167.71 135.744 167.71 136.115V138.246C167.705 138.604 167.405 139.071 166.871 139.81L161.098 148.051C163.243 147.999 165.508 148.318 167.452 149.415C167.891 149.662 168.01 150.025 168.043 150.382V153.037C168.043 153.4 167.643 153.824 167.224 153.604C163.796 151.807 159.244 151.612 155.455 153.624C155.068 153.833 154.663 153.414 154.663 153.052V150.53C154.663 150.125 154.668 149.434 155.073 148.819L161.761 139.228H155.941C155.583 139.228 155.297 138.975 155.297 138.604Z" fill="black"/>
<path fill-rule="evenodd" clip-rule="evenodd" d="M114.661 154.129H111.272C110.948 154.105 110.69 153.862 110.667 153.552V136.158C110.667 135.81 110.957 135.534 111.32 135.534H114.48C114.809 135.548 115.071 135.801 115.095 136.115V138.389H115.157C115.981 136.192 117.531 135.167 119.618 135.167C121.74 135.167 123.065 136.192 124.018 138.389C124.838 136.192 126.702 135.167 128.699 135.167C130.119 135.167 131.673 135.753 132.622 137.069C133.695 138.532 133.475 140.658 133.475 142.522L133.47 153.5C133.47 153.848 133.18 154.129 132.817 154.129H129.433C129.095 154.105 128.823 153.833 128.823 153.5V144.281C128.823 143.547 128.89 141.716 128.728 141.02C128.475 139.853 127.717 139.524 126.735 139.524C125.915 139.524 125.057 140.072 124.709 140.949C124.361 141.826 124.395 143.294 124.395 144.281V153.5C124.395 153.848 124.104 154.129 123.742 154.129H120.357C120.014 154.105 119.747 153.833 119.747 153.5L119.742 144.281C119.742 142.341 120.062 139.486 117.655 139.486C115.219 139.486 115.314 142.269 115.314 144.281V153.5C115.314 153.848 115.023 154.129 114.661 154.129Z" fill="black"/>
<path fill-rule="evenodd" clip-rule="evenodd" d="M177.3 135.167C182.329 135.167 185.051 139.486 185.051 144.977C185.051 150.282 182.043 154.491 177.3 154.491C172.362 154.491 169.674 150.172 169.674 144.791C169.674 139.376 172.395 135.167 177.3 135.167ZM177.329 138.718C174.831 138.718 174.674 142.122 174.674 144.243C174.674 146.369 174.641 150.907 177.3 150.907C179.927 150.907 180.051 147.246 180.051 145.015C180.051 143.547 179.989 141.793 179.545 140.401C179.164 139.19 178.406 138.718 177.329 138.718Z" fill="black"/>
<path fill-rule="evenodd" clip-rule="evenodd" d="M191.572 154.129H188.197C187.859 154.105 187.587 153.833 187.587 153.5L187.582 136.101C187.611 135.782 187.892 135.534 188.235 135.534H191.377C191.672 135.548 191.915 135.748 191.982 136.02V138.68H192.044C192.992 136.301 194.322 135.167 196.663 135.167C198.183 135.167 199.666 135.715 200.619 137.217C201.506 138.608 201.506 140.949 201.506 142.632V153.581C201.468 153.886 201.186 154.129 200.853 154.129H197.454C197.144 154.105 196.887 153.876 196.854 153.581V144.133C196.854 142.231 197.073 139.447 194.732 139.447C193.908 139.447 193.15 140 192.773 140.839C192.297 141.902 192.235 142.96 192.235 144.133V153.5C192.23 153.848 191.934 154.129 191.572 154.129Z" fill="black"/>
<path fill-rule="evenodd" clip-rule="evenodd" d="M146.417 145.82C146.417 147.141 146.45 148.242 145.783 149.415C145.244 150.368 144.386 150.954 143.438 150.954C142.136 150.954 141.374 149.963 141.374 148.499C141.374 145.611 143.962 145.086 146.417 145.086V145.82ZM149.835 154.081C149.611 154.281 149.286 154.296 149.034 154.162C147.909 153.228 147.704 152.794 147.089 151.903C145.23 153.8 143.91 154.367 141.502 154.367C138.647 154.367 136.431 152.608 136.431 149.086C136.431 146.335 137.918 144.462 140.044 143.547C141.884 142.736 144.453 142.593 146.417 142.369V141.931C146.417 141.125 146.479 140.172 146.002 139.476C145.592 138.852 144.801 138.594 144.1 138.594C142.809 138.594 141.66 139.257 141.379 140.629C141.321 140.935 141.097 141.235 140.787 141.249L137.503 140.896C137.227 140.834 136.917 140.61 136.998 140.186C137.751 136.201 141.355 135 144.577 135C146.226 135 148.381 135.439 149.682 136.687C151.331 138.227 151.174 140.282 151.174 142.517V147.799C151.174 149.386 151.832 150.082 152.452 150.94C152.666 151.245 152.714 151.612 152.437 151.841C151.746 152.418 150.516 153.49 149.839 154.091L149.835 154.081Z" fill="black"/>
<path fill-rule="evenodd" clip-rule="evenodd" d="M101.986 145.82C101.986 147.141 102.02 148.242 101.352 149.415C100.814 150.368 99.9604 150.954 99.0071 150.954C97.7058 150.954 96.9478 149.963 96.9478 148.499C96.9478 145.611 99.5362 145.086 101.986 145.086V145.82ZM105.404 154.081C105.18 154.281 104.856 154.296 104.603 154.162C103.478 153.228 103.278 152.794 102.658 151.903C100.799 153.8 99.4837 154.367 97.0718 154.367C94.2213 154.367 92 152.608 92 149.086C92 146.335 93.492 144.462 95.6132 143.547C97.4531 142.736 100.022 142.593 101.986 142.369V141.931C101.986 141.125 102.048 140.172 101.576 139.476C101.162 138.852 100.37 138.594 99.6744 138.594C98.3826 138.594 97.2291 139.257 96.9478 140.629C96.8906 140.935 96.6666 141.235 96.3615 141.249L93.0725 140.896C92.796 140.834 92.491 140.61 92.5672 140.186C93.3251 136.201 96.924 135 100.146 135C101.796 135 103.95 135.439 105.251 136.687C106.901 138.227 106.743 140.282 106.743 142.517V147.799C106.743 149.386 107.401 150.082 108.021 150.94C108.24 151.245 108.288 151.612 108.011 151.841C107.32 152.418 106.09 153.49 105.414 154.091L105.404 154.081Z" fill="black"/>
<rect x="0.5" y="0.5" width="293" height="293" stroke="#191919" stroke-opacity="0.5"/>
</svg>
