<svg width="294" height="294" viewBox="0 0 294 294" fill="none" xmlns="http://www.w3.org/2000/svg">
<path d="M76.3486 137.85L75.0107 142.774L82.6683 137.822L77.6601 156.507L82.7464 156.511L90.1448 128.912" fill="#3395FF"/>
<path d="M68.1066 148.657L66 156.512H76.4249L80.6907 140.532L68.1066 148.657ZM104.319 141.741C104.064 142.688 103.573 143.383 102.841 143.828C102.111 144.271 101.085 144.494 99.7619 144.494H95.5572L97.0335 138.989H101.238C102.56 138.989 103.468 139.21 103.961 139.66C104.453 140.111 104.572 140.799 104.319 141.75V141.741ZM108.672 141.631C109.207 139.643 108.987 138.114 108.008 137.044C107.031 135.982 105.317 135.447 102.871 135.447H93.4872L87.8386 156.521H92.3974L94.6738 148.027H97.6638C98.3348 148.027 98.8632 148.138 99.2488 148.35C99.6353 148.571 99.8621 148.953 99.9317 149.505L100.745 156.521H105.63L104.838 149.981C104.677 148.52 104.008 147.662 102.833 147.407C104.331 146.974 105.585 146.252 106.596 145.25C107.6 144.255 108.317 143.008 108.672 141.64V141.631ZM119.754 148.979C119.372 150.406 118.785 151.484 117.993 152.24C117.2 152.996 116.252 153.37 115.146 153.37C114.019 153.37 113.256 153.005 112.852 152.266C112.448 151.527 112.434 150.456 112.81 149.055C113.185 147.653 113.784 146.558 114.608 145.768C115.432 144.978 116.395 144.583 117.501 144.583C118.605 144.583 119.361 144.965 119.744 145.724C120.134 146.485 120.143 147.575 119.761 148.994L119.754 148.979ZM121.752 141.521L121.181 143.653C120.934 142.888 120.456 142.277 119.75 141.818C119.041 141.368 118.165 141.138 117.119 141.138C115.836 141.138 114.605 141.47 113.424 142.132C112.243 142.795 111.207 143.729 110.324 144.935C109.44 146.141 108.795 147.509 108.378 149.046C107.971 150.592 107.886 151.943 108.132 153.115C108.387 154.296 108.922 155.196 109.746 155.825C110.578 156.462 111.64 156.776 112.94 156.776C113.972 156.781 114.994 156.558 115.93 156.122C116.855 155.705 117.679 155.09 118.342 154.321L117.747 156.543H122.156L126.181 141.528H121.764L121.752 141.521ZM142.023 141.521H129.203L128.307 144.867H135.766L125.904 153.387L125.062 156.53H138.296L139.192 153.183H131.199L141.212 144.536L142.023 141.521ZM153.308 148.953C152.911 150.431 152.322 151.542 151.545 152.266C150.768 152.996 149.827 153.362 148.722 153.362C146.411 153.362 145.652 151.892 146.44 148.953C146.831 147.492 147.422 146.394 148.212 145.654C149.002 144.911 149.959 144.541 151.085 144.541C152.189 144.541 152.935 144.909 153.319 145.65C153.703 146.389 153.699 147.49 153.308 148.951V148.953ZM155.888 142.085C154.873 141.454 153.578 141.138 151.998 141.138C150.398 141.138 148.918 141.452 147.555 142.08C146.198 142.705 145.006 143.637 144.073 144.804C143.113 145.984 142.422 147.369 141.998 148.949C141.582 150.523 141.531 151.905 141.854 153.088C142.177 154.269 142.856 155.178 143.876 155.806C144.903 156.44 146.211 156.755 147.817 156.755C149.397 156.755 150.866 156.437 152.217 155.805C153.567 155.17 154.723 154.268 155.683 153.079C156.642 151.895 157.33 150.513 157.755 148.933C158.18 147.354 158.231 145.974 157.908 144.788C157.585 143.608 156.914 142.699 155.903 142.066L155.888 142.085ZM171.626 145.532L172.756 141.446C172.374 141.25 171.872 141.149 171.244 141.149C170.233 141.149 169.265 141.398 168.33 141.905C167.527 142.334 166.844 142.941 166.266 143.7L166.852 141.5L165.572 141.505H162.429L158.378 156.515H162.848L164.951 148.668C165.256 147.528 165.807 146.63 166.601 145.993C167.391 145.353 168.376 145.033 169.565 145.033C170.296 145.033 170.975 145.2 171.621 145.534L171.626 145.532ZM184.065 149.025C183.683 150.427 183.105 151.497 182.315 152.236C181.525 152.978 180.574 153.349 179.47 153.349C178.365 153.349 177.609 152.975 177.21 152.228C176.802 151.476 176.794 150.393 177.176 148.969C177.558 147.546 178.145 146.455 178.951 145.699C179.758 144.937 180.71 144.556 181.814 144.556C182.901 144.556 183.632 144.947 184.023 145.737C184.413 146.527 184.422 147.623 184.046 149.024L184.065 149.025ZM187.172 142.11C186.344 141.448 185.286 141.116 184.004 141.116C182.88 141.116 181.809 141.371 180.793 141.886C179.778 142.4 178.954 143.101 178.321 143.987L178.337 143.885L179.087 141.499H174.721L173.608 145.652L173.574 145.797L168.987 162.907H173.463L175.774 154.294C176.003 155.06 176.47 155.662 177.184 156.097C177.897 156.53 178.778 156.745 179.826 156.745C181.125 156.745 182.365 156.43 183.542 155.802C184.722 155.172 185.742 154.264 186.608 153.092C187.475 151.92 188.118 150.561 188.528 149.024C188.944 147.484 189.029 146.11 188.791 144.908C188.549 143.704 188.013 142.773 187.186 142.114L187.172 142.11ZM202.021 148.964C201.639 150.383 201.053 151.47 200.263 152.217C199.473 152.97 198.521 153.345 197.417 153.345C196.287 153.345 195.523 152.979 195.124 152.24C194.716 151.501 194.707 150.431 195.081 149.029C195.455 147.628 196.051 146.532 196.875 145.742C197.699 144.952 198.663 144.558 199.769 144.558C200.873 144.558 201.621 144.94 202.012 145.696C202.402 146.455 202.405 147.545 202.024 148.967L202.021 148.964ZM204.017 141.502L203.445 143.634C203.199 142.865 202.723 142.254 202.018 141.799C201.305 141.346 200.43 141.12 199.385 141.12C198.102 141.12 196.864 141.451 195.682 142.114C194.501 142.776 193.465 143.705 192.581 144.908C191.698 146.111 191.052 147.482 190.636 149.019C190.224 150.563 190.143 151.916 190.39 153.093C190.639 154.265 191.175 155.171 192.004 155.803C192.831 156.431 193.898 156.749 195.197 156.749C196.242 156.749 197.24 156.532 198.187 156.095C199.111 155.676 199.932 155.06 200.594 154.292L199.999 156.515H204.408L208.432 141.506H204.024L204.017 141.502ZM226.94 141.507L226.943 141.503H224.233C224.147 141.503 224.07 141.507 223.991 141.509H222.585L221.863 142.511L221.685 142.749L221.608 142.868L215.896 150.825L214.715 141.507H210.037L212.407 155.667L207.174 162.912H211.838L213.103 161.118C213.139 161.065 213.171 161.021 213.214 160.965L214.692 158.867L214.734 158.807L221.354 149.421L226.934 141.521L226.943 141.516H226.94V141.507Z" fill="black"/>
<rect x="0.5" y="0.5" width="293" height="293" stroke="#191919" stroke-opacity="0.5"/>
</svg>
