<svg width="164" height="24" viewBox="0 0 164 24" fill="none" xmlns="http://www.w3.org/2000/svg">
<path d="M9.25178 19.807C9.98749 19.807 10.6476 19.6861 11.2321 19.4442C11.8166 19.1923 12.3105 18.8395 12.7136 18.386C13.1168 17.9324 13.4241 17.3832 13.6357 16.7382C13.8474 16.0932 13.9532 15.3676 13.9532 14.5613V1.5H18.4884V14.5613C18.4884 15.8917 18.2717 17.1161 17.8384 18.2348C17.4151 19.3434 16.8054 20.3009 16.0092 21.1071C15.213 21.9133 14.2455 22.5432 13.1067 22.9967C11.9678 23.4503 10.6829 23.677 9.25178 23.677C7.82064 23.677 6.53065 23.4503 5.38174 22.9967C4.24292 22.5432 3.27543 21.9133 2.47923 21.1071C1.68305 20.3009 1.06829 19.3434 0.634925 18.2348C0.21164 17.1161 0 15.8917 0 14.5613V1.5H4.53519V14.5613C4.53519 15.3676 4.64102 16.0932 4.85262 16.7382C5.06427 17.3832 5.37165 17.9324 5.77477 18.386C6.17794 18.8395 6.67177 19.1923 7.25627 19.4442C7.84082 19.6861 8.50599 19.807 9.25178 19.807ZM35 5.15839H28.5903V23.4352H24.04V5.15839H17.6303V1.5H35V5.15839Z" fill="#DD5F43"/>
<path d="M47.557 18.4086C46.6356 19.2542 45.443 19.677 43.9789 19.677C42.5149 19.677 41.3159 19.2542 40.382 18.4086C39.4607 17.5504 39 16.4082 39 14.982V6.17892H40.7606V14.9063C40.7606 15.8401 41.0383 16.5848 41.5936 17.1401C42.1489 17.6829 42.944 17.9543 43.9789 17.9543C45.0139 17.9543 45.809 17.6829 46.3643 17.1401C46.9196 16.5848 47.1973 15.8401 47.1973 14.9063V6.17892H48.939V14.982C48.939 16.4082 48.4783 17.5504 47.557 18.4086ZM61.8116 19.4309H59.6536L53.9362 13.0699V19.4309H52.1757V6.17892H53.9362V12.1612L59.4642 6.17892H61.6223L55.7726 12.6156L61.8116 19.4309ZM71.7802 19.4309L68.8081 14.3572H65.6843V19.4309H63.9238V6.17892H69.2246C70.3604 6.17892 71.3322 6.58284 72.14 7.39049C72.9476 8.1856 73.3515 9.15117 73.3515 10.287C73.3515 11.1453 73.0929 11.9277 72.5753 12.6344C72.0705 13.3413 71.4142 13.8398 70.6066 14.1301L73.7302 19.4309H71.7802ZM65.6843 7.82598V12.767H69.2246C69.8808 12.767 70.4361 12.5272 70.8905 12.0477C71.3574 11.5554 71.591 10.9685 71.591 10.287C71.591 9.60555 71.3574 9.02501 70.8905 8.5454C70.4361 8.06579 69.8808 7.82598 69.2246 7.82598H65.6843ZM84.5229 6.17892V7.84486H80.604V19.4309H78.8624V7.84486H74.9625V6.17892H84.5229ZM88.5706 17.7649H94.7231V19.4309H86.8099V6.17892H94.6285V7.84486H88.5706V11.9152H94.1553V13.5621H88.5706V17.7649ZM105.25 19.4309L102.278 14.3572H99.154V19.4309H97.3933V6.17892H102.694C103.83 6.17892 104.802 6.58284 105.61 7.39049C106.417 8.1856 106.821 9.15117 106.821 10.287C106.821 11.1453 106.562 11.9277 106.045 12.6344C105.54 13.3413 104.884 13.8398 104.076 14.1301L107.2 19.4309H105.25ZM99.154 7.82598V12.767H102.694C103.35 12.767 103.906 12.5272 104.36 12.0477C104.827 11.5554 105.061 10.9685 105.061 10.287C105.061 9.60555 104.827 9.02501 104.36 8.5454C103.906 8.06579 103.35 7.82598 102.694 7.82598H99.154ZM121.911 6.17892V19.4309H120.17V9.07548L115.834 16.2883H115.607L111.272 9.09436V19.4309H109.511V6.17892H111.499L115.721 13.1836L119.923 6.17892H121.911ZM125.29 6.17892H127.05V19.4309H125.29V6.17892ZM138.673 6.17892H140.433V19.4309H139.013L132.198 9.52985V19.4309H130.438V6.17892H131.857L138.673 16.0611V6.17892ZM152.54 19.4309L151.461 16.4586H145.497L144.418 19.4309H142.544L147.485 6.17892H149.473L154.414 19.4309H152.54ZM146.103 14.8116H150.855L148.47 8.28036L146.103 14.8116ZM158.283 17.7649H164V19.4309H156.522V6.17892H158.283V17.7649Z" fill="#DD5F43"/>
</svg>
