<svg width="301" height="27" viewBox="0 0 301 27" fill="none" xmlns="http://www.w3.org/2000/svg">
<path d="M11.9012 22.3991C12.7713 22.3991 13.552 22.2561 14.2432 21.97C14.9345 21.6721 15.5185 21.2549 15.9952 20.7186C16.472 20.1822 16.8355 19.5327 17.0858 18.7699C17.3361 18.0071 17.4612 17.149 17.4612 16.1955V0.749023H22.8246V16.1955C22.8246 17.7687 22.5683 19.2168 22.0559 20.5398C21.5553 21.8508 20.8342 22.9831 19.8926 23.9366C18.951 24.8901 17.8069 25.635 16.4601 26.1713C15.1133 26.7076 13.5937 26.9758 11.9012 26.9758C10.2088 26.9758 8.6832 26.7076 7.32448 26.1713C5.97769 25.635 4.83353 24.8901 3.89194 23.9366C2.95037 22.9831 2.22333 21.8508 1.71083 20.5398C1.21025 19.2168 0.959961 17.7687 0.959961 16.1955V0.749023H6.32334V16.1955C6.32334 17.149 6.44849 18.0071 6.69873 18.7699C6.94903 19.5327 7.31255 20.1822 7.78928 20.7186C8.26608 21.2549 8.85009 21.6721 9.54133 21.97C10.2326 22.2561 11.0193 22.3991 11.9012 22.3991ZM42.3514 5.07548H34.7712V26.6898H29.39V5.07548H21.8097V0.749023H42.3514V5.07548Z" fill="white"/>
<path d="M74.4935 24.5114C72.7034 26.1544 70.386 26.9758 67.5414 26.9758C64.6968 26.9758 62.3672 26.1544 60.5525 24.5114C58.7624 22.8437 57.8673 20.6244 57.8673 17.8535V0.749023H61.2881V17.7064C61.2881 19.5208 61.8277 20.9676 62.9066 22.0466C63.9856 23.1012 65.5305 23.6285 67.5414 23.6285C69.5523 23.6285 71.0972 23.1012 72.1761 22.0466C73.2551 20.9676 73.7946 19.5208 73.7946 17.7064V0.749023H77.1787V17.8535C77.1787 20.6244 76.2836 22.8437 74.4935 24.5114ZM102.19 26.4976H97.9973L86.8884 14.1383V26.4976H83.4677V0.749023H86.8884V12.3726L97.6294 0.749023H101.823L90.4565 13.2554L102.19 26.4976ZM121.559 26.4976L115.785 16.6394H109.715V26.4976H106.294V0.749023H116.594C118.801 0.749023 120.689 1.53384 122.259 3.10309C123.828 4.648 124.613 6.5241 124.613 8.73107C124.613 10.3987 124.11 11.919 123.104 13.2921C122.123 14.6656 120.848 15.6342 119.279 16.1982L125.348 26.4976H121.559ZM109.715 3.94926V13.5496H116.594C117.869 13.5496 118.948 13.0836 119.831 12.1521C120.738 11.1955 121.192 10.0552 121.192 8.73107C121.192 7.40696 120.738 6.27898 119.831 5.34709C118.948 4.41521 117.869 3.94926 116.594 3.94926H109.715ZM146.319 0.749023V3.98594H138.704V26.4976H135.32V3.98594H127.743V0.749023H146.319ZM154.183 23.2607H166.138V26.4976H150.762V0.749023H165.954V3.98594H154.183V11.8946H165.034V15.0945H154.183V23.2607ZM186.591 26.4976L180.816 16.6394H174.747V26.4976H171.326V0.749023H181.625C183.832 0.749023 185.72 1.53384 187.29 3.10309C188.859 4.648 189.644 6.5241 189.644 8.73107C189.644 10.3987 189.141 11.919 188.136 13.2921C187.155 14.6656 185.88 15.6342 184.311 16.1982L190.38 26.4976H186.591ZM174.747 3.94926V13.5496H181.625C182.9 13.5496 183.979 13.0836 184.862 12.1521C185.769 11.1955 186.223 10.0552 186.223 8.73107C186.223 7.40696 185.769 6.27898 184.862 5.34709C183.979 4.41521 182.9 3.94926 181.625 3.94926H174.747ZM218.964 0.749023V26.4976H215.58V6.37703L207.157 20.3916H206.715L198.292 6.41371V26.4976H194.871V0.749023H198.733L206.936 14.3591L215.102 0.749023H218.964ZM225.528 0.749023H228.949V26.4976H225.528V0.749023ZM251.532 0.749023H254.953V26.4976H252.194L238.952 7.25988V26.4976H235.531V0.749023H238.29L251.532 19.95V0.749023ZM278.476 26.4976L276.379 20.7225H264.793L262.696 26.4976H259.055L268.655 0.749023H272.517L282.118 26.4976H278.476ZM265.97 17.5223H275.202L270.568 4.83211L265.97 17.5223ZM289.634 23.2607H300.743V26.4976H286.213V0.749023H289.634V23.2607Z" fill="white"/>
</svg>
