<svg width="138" height="48" viewBox="0 0 138 48" fill="none" xmlns="http://www.w3.org/2000/svg">
<path fill-rule="evenodd" clip-rule="evenodd" d="M85.2272 37.8073C77.2439 42.4978 65.6724 45.0003 55.7097 45.0003C41.7402 45.0003 29.1642 40.8819 19.6499 34.0321C18.9024 33.4935 19.5721 32.7594 20.4691 33.1789C30.7369 37.9408 43.4326 40.8056 56.5469 40.8056C65.3914 40.8056 75.1209 39.347 84.0671 36.3201C85.4186 35.8625 86.5488 37.0256 85.2272 37.8073Z" fill="#FF9900"/>
<path fill-rule="evenodd" clip-rule="evenodd" d="M88.5463 34.7805C87.5297 33.7414 81.8008 34.2895 79.2294 34.5326C78.446 34.6089 78.3264 34.0655 79.032 33.6746C83.5948 31.1149 91.0818 31.8538 91.9549 32.7118C92.828 33.5745 91.7277 39.5568 87.44 42.412C86.7822 42.8506 86.1543 42.617 86.4473 42.0355C87.4101 40.1192 89.5689 35.8244 88.5463 34.7805Z" fill="#FF9900"/>
<path fill-rule="evenodd" clip-rule="evenodd" d="M77.2973 15.6036V13.1154C77.2973 12.7388 77.5833 12.4862 77.9265 12.4862H89.0663C89.4238 12.4862 89.7098 12.7436 89.7098 13.1154V15.2461C89.7051 15.6036 89.4048 16.0708 88.8709 16.8096L83.0984 25.0513C85.2434 24.9988 87.5076 25.3182 89.4524 26.4145C89.891 26.6624 90.0101 27.0247 90.0435 27.3822V30.0373C90.0435 30.3995 89.6431 30.8238 89.2236 30.6045C85.7964 28.8074 81.2441 28.612 77.4546 30.6236C77.0685 30.8333 76.6633 30.4138 76.6633 30.0516V27.53C76.6633 27.1248 76.6681 26.4336 77.0733 25.8187L83.761 16.2281H77.9408C77.5833 16.2281 77.2973 15.9754 77.2973 15.6036Z" fill="black"/>
<path fill-rule="evenodd" clip-rule="evenodd" d="M36.661 31.1289H33.2719C32.9477 31.105 32.6903 30.8619 32.6665 30.5521V13.1583C32.6665 12.8104 32.9573 12.5339 33.3195 12.5339H36.4799C36.8088 12.5482 37.0709 12.8008 37.0948 13.1154V15.3892H37.1568C37.9814 13.1917 39.5306 12.1669 41.6184 12.1669C43.7396 12.1669 45.0647 13.1917 46.0181 15.3892C46.8379 13.1917 48.7017 12.1669 50.699 12.1669C52.1195 12.1669 53.6734 12.7532 54.622 14.0688C55.6945 15.5322 55.4752 17.6581 55.4752 19.5219L55.4705 30.4997C55.4705 30.8476 55.1797 31.1289 54.8174 31.1289H51.4331C51.0946 31.105 50.8229 30.8333 50.8229 30.4997V21.2808C50.8229 20.5468 50.8897 18.7163 50.7276 18.0204C50.475 16.8526 49.7171 16.5236 48.7351 16.5236C47.9152 16.5236 47.0572 17.0718 46.7093 17.9489C46.3613 18.826 46.3946 20.2941 46.3946 21.2808V30.4997C46.3946 30.8476 46.1039 31.1289 45.7416 31.1289H42.3572C42.014 31.105 41.7471 30.8333 41.7471 30.4997L41.7423 21.2808C41.7423 19.3408 42.0617 16.4855 39.6545 16.4855C37.2187 16.4855 37.3141 19.2693 37.3141 21.2808V30.4997C37.3141 30.8476 37.0233 31.1289 36.661 31.1289Z" fill="black"/>
<path fill-rule="evenodd" clip-rule="evenodd" d="M99.3003 12.1669C104.329 12.1669 107.051 16.4855 107.051 21.9768C107.051 27.2821 104.043 31.4911 99.3003 31.4911C94.362 31.4911 91.6736 27.1725 91.6736 21.7909C91.6736 16.3759 94.3954 12.1669 99.3003 12.1669ZM99.3289 15.7181C96.8312 15.7181 96.6739 19.1215 96.6739 21.2427C96.6739 23.3686 96.6405 27.9066 99.3003 27.9066C101.927 27.9066 102.051 24.2457 102.051 22.0149C102.051 20.5468 101.989 18.7926 101.545 17.4007C101.164 16.19 100.406 15.7181 99.3289 15.7181Z" fill="black"/>
<path fill-rule="evenodd" clip-rule="evenodd" d="M113.572 31.1289H110.197C109.859 31.105 109.587 30.8333 109.587 30.4997L109.582 13.1011C109.611 12.7818 109.892 12.5339 110.235 12.5339H113.377C113.672 12.5482 113.915 12.7484 113.982 13.0201V15.6799H114.044C114.992 13.3013 116.322 12.1669 118.663 12.1669C120.183 12.1669 121.666 12.715 122.619 14.2166C123.506 15.6084 123.506 17.9489 123.506 19.6315V30.5807C123.468 30.8858 123.186 31.1289 122.853 31.1289H119.454C119.144 31.105 118.887 30.8762 118.854 30.5807V21.1331C118.854 19.2311 119.073 16.4474 116.732 16.4474C115.908 16.4474 115.15 17.0003 114.773 17.8393C114.297 18.9022 114.235 19.9605 114.235 21.1331V30.4997C114.23 30.8476 113.934 31.1289 113.572 31.1289Z" fill="black"/>
<path fill-rule="evenodd" clip-rule="evenodd" d="M68.4169 22.8204C68.4169 24.1408 68.4503 25.2419 67.783 26.4146C67.2443 27.3679 66.3863 27.9542 65.4377 27.9542C64.1364 27.9542 63.3737 26.9627 63.3737 25.4993C63.3737 22.6107 65.9621 22.0864 68.4169 22.0864V22.8204ZM71.8347 31.0812C71.6106 31.2814 71.2865 31.2957 71.0339 31.1622C69.9089 30.2279 69.7039 29.7942 69.089 28.9028C67.23 30.7999 65.9096 31.3672 63.5024 31.3672C60.6472 31.3672 58.4307 29.6083 58.4307 26.0857C58.4307 23.3353 59.9179 21.4619 62.0438 20.5467C63.8838 19.7364 66.453 19.5934 68.4169 19.3693V18.9308C68.4169 18.1252 68.4789 17.1719 68.0022 16.476C67.5923 15.8515 66.801 15.5941 66.1003 15.5941C64.8085 15.5941 63.6598 16.2567 63.3785 17.6295C63.3213 17.9346 63.0973 18.2349 62.7874 18.2492L59.5032 17.8964C59.2267 17.8345 58.9169 17.6104 58.9979 17.1862C59.751 13.2012 63.3547 12 66.577 12C68.2263 12 70.3808 12.4385 71.6821 13.6874C73.3314 15.2271 73.1741 17.2815 73.1741 19.5171V24.7986C73.1741 26.386 73.8319 27.0819 74.4516 27.9399C74.6661 28.245 74.7138 28.612 74.4373 28.8408C73.7461 29.4176 72.5163 30.4901 71.8394 31.0907L71.8347 31.0812Z" fill="black"/>
<path fill-rule="evenodd" clip-rule="evenodd" d="M23.9863 22.8204C23.9863 24.1408 24.0196 25.2419 23.3523 26.4145C22.8137 27.3679 21.9604 27.9542 21.0071 27.9542C19.7058 27.9542 18.9478 26.9627 18.9478 25.4993C18.9478 22.6107 21.5362 22.0864 23.9863 22.0864V22.8204ZM27.404 31.0812C27.18 31.2814 26.8558 31.2957 26.6032 31.1622C25.4782 30.2279 25.278 29.7941 24.6584 28.9028C22.7994 30.7999 21.4837 31.3672 19.0718 31.3672C16.2213 31.3672 14 29.6082 14 26.0856C14 23.3352 15.492 21.4619 17.6132 20.5467C19.4531 19.7364 22.0224 19.5934 23.9863 19.3693V18.9308C23.9863 18.1252 24.0482 17.1719 23.5763 16.4759C23.1616 15.8515 22.3703 15.5941 21.6744 15.5941C20.3826 15.5941 19.2291 16.2567 18.9478 17.6295C18.8906 17.9346 18.6666 18.2349 18.3615 18.2492L15.0725 17.8964C14.796 17.8345 14.491 17.6104 14.5672 17.1862C15.3251 13.2012 18.924 12 22.1463 12C23.7956 12 25.9501 12.4385 27.2515 13.6874C28.9007 15.2271 28.7434 17.2815 28.7434 19.5171V24.7986C28.7434 26.3859 29.4013 27.0819 30.0209 27.9399C30.2402 28.245 30.2879 28.612 30.0114 28.8408C29.3202 29.4176 28.0904 30.4901 27.4135 31.0907L27.404 31.0812Z" fill="black"/>
</svg>
