<svg width="150" height="22" viewBox="0 0 150 22" fill="none" xmlns="http://www.w3.org/2000/svg">
<path d="M8.462 17.6832C9.1349 17.6832 9.73865 17.5726 10.2733 17.3513C10.8079 17.1209 11.2596 16.7983 11.6283 16.3835C11.997 15.9686 12.2782 15.4663 12.4717 14.8763C12.6653 14.2864 12.7621 13.6227 12.7621 12.8853V0.938965H16.9101V12.8853C16.9101 14.1021 16.7119 15.222 16.3156 16.2452C15.9284 17.2592 15.3708 18.1349 14.6425 18.8723C13.9143 19.6097 13.0294 20.1858 11.9878 20.6006C10.9462 21.0154 9.77093 21.2228 8.462 21.2228C7.15302 21.2228 5.97316 21.0154 4.92233 20.6006C3.88072 20.1858 2.99582 19.6097 2.26759 18.8723C1.53938 18.1349 0.977091 17.2592 0.580725 16.2452C0.193573 15.222 0 14.1021 0 12.8853V0.938965H4.14804V12.8853C4.14804 13.6227 4.24483 14.2864 4.43837 14.8763C4.63195 15.4663 4.9131 15.9686 5.2818 16.3835C5.65055 16.7983 6.10223 17.1209 6.63683 17.3513C7.17148 17.5726 7.77987 17.6832 8.462 17.6832ZM32.0122 4.28506H26.1496V21.0016H21.9878V4.28506H16.1252V0.938965H32.0122V4.28506Z" fill="#F3F3F3"/>
<path d="M43.4972 16.4042C42.6546 17.1776 41.5637 17.5643 40.2247 17.5643C38.8856 17.5643 37.789 17.1776 36.9347 16.4042C36.0921 15.6192 35.6707 14.5745 35.6707 13.2701V5.21847H37.281V13.2009C37.281 14.0549 37.535 14.736 38.0429 15.2439C38.5508 15.7404 39.2781 15.9886 40.2247 15.9886C41.1712 15.9886 41.8985 15.7404 42.4064 15.2439C42.9143 14.736 43.1683 14.0549 43.1683 13.2009V5.21847H44.7613V13.2701C44.7613 14.5745 44.3399 15.6192 43.4972 16.4042ZM56.5351 17.3392H54.5612L49.3319 11.5212V17.3392H47.7217V5.21847H49.3319V10.69L54.388 5.21847H56.3619L51.0115 11.1056L56.5351 17.3392ZM65.6526 17.3392L62.9343 12.6986H60.0771V17.3392H58.4669V5.21847H63.3152C64.3541 5.21847 65.2429 5.58791 65.9817 6.32661C66.7204 7.05385 67.0899 7.93699 67.0899 8.97588C67.0899 9.7609 66.8532 10.4765 66.3799 11.1229C65.9181 11.7695 65.3179 12.2254 64.5792 12.4909L67.4362 17.3392H65.6526ZM60.0771 6.72493V11.2441H63.3152C63.9154 11.2441 64.4233 11.0248 64.8389 10.5863C65.2659 10.136 65.4796 9.59918 65.4796 8.97588C65.4796 8.35258 65.2659 7.8216 64.8389 7.38293C64.4233 6.94426 63.9154 6.72493 63.3152 6.72493H60.0771ZM77.3076 5.21847V6.74219H73.7232V17.3392H72.1302V6.74219H68.5633V5.21847H77.3076ZM81.0097 15.8154H86.637V17.3392H79.3993V5.21847H86.5505V6.74219H81.0097V10.4651H86.1177V11.9713H81.0097V15.8154ZM96.2652 17.3392L93.5466 12.6986H90.6897V17.3392H89.0793V5.21847H93.9275C94.9664 5.21847 95.8552 5.58791 96.5941 6.32661C97.3328 7.05385 97.7022 7.93699 97.7022 8.97588C97.7022 9.7609 97.4656 10.4765 96.9924 11.1229C96.5307 11.7695 95.9303 12.2254 95.1916 12.4909L98.0486 17.3392H96.2652ZM90.6897 6.72493V11.2441H93.9275C94.5278 11.2441 95.0357 11.0248 95.4513 10.5863C95.8783 10.136 96.092 9.59918 96.092 8.97588C96.092 8.35258 95.8783 7.8216 95.4513 7.38293C95.0357 6.94426 94.5278 6.72493 93.9275 6.72493H90.6897ZM111.504 5.21847V17.3392H109.911V7.86776L105.946 14.4649H105.738L101.773 7.88502V17.3392H100.163V5.21847H101.981L105.842 11.6252L109.686 5.21847H111.504ZM114.594 5.21847H116.205V17.3392H114.594V5.21847ZM126.835 5.21847H128.445V17.3392H127.147L120.913 8.28334V17.3392H119.303V5.21847H120.601L126.835 14.257V5.21847ZM139.518 17.3392L138.531 14.6206H133.077L132.09 17.3392H130.376L134.895 5.21847H136.713L141.233 17.3392H139.518ZM133.631 13.1142H137.977L135.796 7.14051L133.631 13.1142ZM144.771 15.8154H150V17.3392H143.16V5.21847H144.771V15.8154Z" fill="#F3F3F3"/>
</svg>
