<svg width="294" height="294" viewBox="0 0 294 294" fill="none" xmlns="http://www.w3.org/2000/svg">
<path d="M232.444 161.298H240.248C240.551 162.282 241.581 163.266 243.51 163.266C246.123 163.266 247.023 161.643 247.023 159.244V157.535H246.85C245.561 159.037 243.847 160.141 241.321 160.141C236.346 160.141 232.02 156.464 232.02 149.275C232.02 142.689 235.576 137.554 240.94 137.554C244.029 137.554 245.915 138.796 247.161 140.764H247.291V138.244H255.009V158.173C255.009 161.85 253.719 164.716 251.79 166.433C249.774 168.229 246.902 168.954 243.64 168.954C237.505 168.954 233.223 166.425 232.444 161.298ZM247.369 148.886C247.369 146.021 246.002 143.708 243.64 143.708C241.364 143.708 239.911 145.762 239.911 148.886C239.911 151.968 241.373 154.186 243.64 154.186C245.993 154.194 247.369 151.924 247.369 148.886ZM223.402 142.171H223.532C225.202 138.96 227.391 137.769 230.177 137.769C230.817 137.769 231.25 137.856 231.51 137.985V145.045H231.336C226.578 144.191 223.792 146.461 223.792 151.631V161.255H215.685V138.244H223.402V142.171ZM39 129H54.868C57.8703 129 60.1804 129.725 61.8156 131.054C63.6585 132.547 64.6449 134.774 64.6449 137.424C64.6449 140.505 63.399 142.43 60.8293 143.63V143.759C64.1776 144.873 66.1071 147.868 66.1071 151.502C66.1071 154.963 64.7746 157.664 62.5943 159.287C60.7514 160.616 58.3548 161.255 55.1795 161.255H39V129ZM54.0979 154.108C56.0274 154.108 57.4377 152.952 57.4377 150.811C57.4377 148.584 55.8976 147.514 54.0547 147.514H47.7905V154.099H54.0979V154.108ZM53.276 141.619C54.9891 141.619 56.235 140.678 56.235 138.796C56.235 136.958 54.9458 136.06 53.2327 136.06H47.7905V141.619H53.276Z" fill="black"/>
<path d="M67.5606 129H75.8753V161.255H67.5606V129ZM77.4673 149.784C77.4673 142.516 82.1827 137.597 89.4764 137.597C96.7701 137.597 101.399 142.516 101.399 149.784C101.399 157.103 96.7701 161.971 89.4764 161.971C82.1827 161.98 77.4673 157.103 77.4673 149.784ZM93.1622 149.784C93.1622 145.762 91.873 143.241 89.3899 143.241C86.9067 143.241 85.7041 145.762 85.7041 149.784C85.7041 153.849 86.9067 156.369 89.3899 156.369C91.873 156.378 93.1622 153.849 93.1622 149.784ZM102.342 149.784C102.342 142.516 107.057 137.597 114.351 137.597C121.645 137.597 126.274 142.516 126.274 149.784C126.274 157.103 121.645 161.971 114.351 161.971C107.057 161.98 102.342 157.103 102.342 149.784ZM118.037 149.784C118.037 145.762 116.748 143.241 114.265 143.241C111.782 143.241 110.579 145.762 110.579 149.784C110.579 153.849 111.782 156.369 114.265 156.369C116.748 156.378 118.037 153.849 118.037 149.784ZM127.857 138.244H135.575V141.705H135.705C137.245 139.012 139.347 137.554 142.652 137.554C145.568 137.554 147.757 139.004 148.873 141.532H149.003C150.889 138.494 153.338 137.554 156.167 137.554C161.531 137.554 163.841 141.489 163.841 146.789V161.246H155.734V148.248C155.734 145.891 155.007 144.355 152.948 144.355C150.932 144.355 149.903 146.236 149.903 148.722V161.255H141.787V148.248C141.787 145.891 141.06 144.355 139.001 144.355C136.985 144.355 135.956 146.236 135.956 148.722V161.255H127.857V138.244ZM173.739 158.26H173.653V161.255H165.935V129H174.042V140.635H174.172C175.712 138.624 177.771 137.554 180.73 137.554C186.518 137.554 189.867 142.775 189.867 149.698C189.867 157.526 186.224 162.014 180.22 162.014C177.728 162.023 175.158 160.823 173.739 158.26ZM181.63 149.62C181.63 145.9 180.263 143.5 177.814 143.5C175.331 143.5 173.739 145.9 173.739 149.62C173.739 153.297 175.323 155.739 177.814 155.739C180.298 155.731 181.63 153.34 181.63 149.62ZM190.896 149.706C190.896 142.516 195.655 137.519 202.559 137.519C205.986 137.519 208.651 138.589 210.666 140.514C213.323 143.077 214.525 147.1 214.439 151.847H198.96C199.306 154.712 200.673 156.171 203.122 156.171C204.541 156.171 205.778 155.532 206.297 153.987H214.101C212.734 159.244 208.659 161.902 202.871 161.902C195.698 161.893 190.896 157.06 190.896 149.706ZM198.96 147.307H206.332C206.202 144.528 204.662 143.069 202.733 143.069C200.5 143.069 199.254 144.657 198.96 147.307Z" fill="black"/>
<rect x="0.5" y="0.5" width="293" height="293" stroke="#191919" stroke-opacity="0.5"/>
</svg>
