<svg width="294" height="294" viewBox="0 0 294 294" fill="none" xmlns="http://www.w3.org/2000/svg">
<path d="M128.212 135.771H120.337C119.798 135.771 119.34 136.163 119.256 136.695L116.071 156.889C116.007 157.288 116.316 157.647 116.72 157.647H120.48C121.019 157.647 121.477 157.255 121.561 156.722L122.42 151.275C122.503 150.742 122.963 150.351 123.5 150.351H125.993C131.181 150.351 134.175 147.841 134.957 142.866C135.309 140.69 134.972 138.98 133.953 137.782C132.833 136.467 130.848 135.771 128.212 135.771ZM129.121 143.147C128.69 145.973 126.531 145.973 124.443 145.973H123.255L124.089 140.695C124.138 140.376 124.415 140.141 124.737 140.141H125.282C126.704 140.141 128.045 140.141 128.739 140.952C129.152 141.436 129.279 142.154 129.121 143.147Z" fill="#253B80"/>
<path d="M151.753 143.056H147.982C147.66 143.056 147.383 143.291 147.333 143.61L147.166 144.665L146.903 144.282C146.086 143.097 144.266 142.701 142.449 142.701C138.281 142.701 134.722 145.858 134.029 150.285C133.668 152.494 134.181 154.606 135.434 156.078C136.583 157.433 138.227 157.997 140.184 157.997C143.541 157.997 145.403 155.838 145.403 155.838L145.235 156.886C145.172 157.286 145.481 157.646 145.883 157.646H149.279C149.82 157.646 150.276 157.254 150.361 156.721L152.399 143.814C152.463 143.416 152.156 143.056 151.753 143.056ZM146.496 150.396C146.132 152.55 144.422 153.997 142.241 153.997C141.146 153.997 140.271 153.645 139.709 152.98C139.152 152.319 138.94 151.378 139.117 150.33C139.457 148.194 141.196 146.701 143.343 146.701C144.414 146.701 145.285 147.056 145.858 147.728C146.433 148.406 146.661 149.352 146.496 150.396Z" fill="#253B80"/>
<path d="M171.838 143.056H168.048C167.686 143.056 167.347 143.236 167.142 143.536L161.915 151.235L159.7 143.837C159.56 143.374 159.133 143.056 158.649 143.056H154.925C154.473 143.056 154.158 143.498 154.302 143.924L158.477 156.174L154.552 161.714C154.244 162.15 154.555 162.75 155.088 162.75H158.873C159.232 162.75 159.568 162.575 159.772 162.28L172.377 144.087C172.678 143.651 172.368 143.056 171.838 143.056Z" fill="#253B80"/>
<path d="M184.385 135.772H176.508C175.971 135.772 175.512 136.163 175.428 136.695L172.243 156.889C172.18 157.288 172.488 157.647 172.89 157.647H176.932C177.307 157.647 177.629 157.373 177.688 157L178.591 151.276C178.674 150.743 179.134 150.351 179.672 150.351H182.163C187.352 150.351 190.345 147.841 191.128 142.866C191.481 140.69 191.142 138.98 190.123 137.782C189.005 136.467 187.021 135.772 184.385 135.772ZM185.293 143.147C184.864 145.973 182.705 145.973 180.616 145.973H179.429L180.263 140.696C180.313 140.377 180.587 140.142 180.911 140.142H181.455C182.876 140.142 184.219 140.142 184.912 140.952C185.325 141.436 185.451 142.155 185.293 143.147Z" fill="#179BD7"/>
<path d="M207.924 143.056H204.155C203.832 143.056 203.556 143.291 203.508 143.61L203.341 144.665L203.076 144.283C202.26 143.098 200.44 142.702 198.623 142.702C194.456 142.702 190.898 145.858 190.205 150.285C189.845 152.494 190.355 154.606 191.608 156.079C192.76 157.433 194.402 157.997 196.358 157.997C199.716 157.997 201.578 155.838 201.578 155.838L201.41 156.886C201.347 157.287 201.655 157.646 202.059 157.646H205.455C205.993 157.646 206.451 157.254 206.535 156.721L208.575 143.814C208.637 143.417 208.328 143.056 207.924 143.056ZM202.667 150.396C202.306 152.55 200.594 153.997 198.413 153.997C197.32 153.997 196.442 153.646 195.88 152.98C195.323 152.319 195.113 151.378 195.288 150.33C195.63 148.194 197.367 146.701 199.515 146.701C200.585 146.701 201.456 147.057 202.029 147.728C202.606 148.406 202.834 149.353 202.667 150.396Z" fill="#179BD7"/>
<path d="M212.37 136.326L209.138 156.889C209.074 157.288 209.383 157.647 209.785 157.647H213.034C213.574 157.647 214.033 157.255 214.116 156.722L217.303 136.529C217.366 136.131 217.058 135.771 216.656 135.771H213.017C212.696 135.772 212.419 136.007 212.37 136.326Z" fill="#179BD7"/>
<path d="M83.3668 161.572L83.9691 157.746L82.6276 157.715H76.2217L80.6734 129.488C80.6873 129.403 80.7322 129.324 80.7978 129.267C80.8634 129.211 80.9475 129.18 81.035 129.18H91.8362C95.422 129.18 97.8966 129.926 99.1886 131.399C99.7943 132.09 100.18 132.812 100.367 133.606C100.562 134.44 100.566 135.436 100.375 136.651L100.361 136.739V137.518L100.967 137.861C101.477 138.132 101.882 138.441 102.193 138.796C102.711 139.387 103.046 140.138 103.188 141.028C103.334 141.943 103.286 143.032 103.046 144.266C102.77 145.684 102.323 146.92 101.72 147.931C101.165 148.863 100.458 149.635 99.6182 150.234C98.8167 150.803 97.8644 151.235 96.7877 151.511C95.7445 151.783 94.555 151.92 93.2503 151.92H92.4097C91.8086 151.92 91.2248 152.136 90.7665 152.524C90.307 152.92 90.003 153.462 89.9097 154.054L89.8464 154.398L88.7824 161.14L88.734 161.388C88.7214 161.466 88.6995 161.505 88.6673 161.532C88.6385 161.556 88.597 161.572 88.5567 161.572H83.3668Z" fill="#253B80"/>
<path d="M101.54 136.828C101.508 137.034 101.471 137.245 101.43 137.461C100.005 144.775 95.132 147.301 88.908 147.301H85.739C84.9779 147.301 84.3365 147.854 84.2179 148.605L82.5954 158.895L82.136 161.811C82.0588 162.304 82.4388 162.749 82.9363 162.749H88.5568C89.2224 162.749 89.7878 162.265 89.8926 161.609L89.9478 161.323L91.0061 154.608L91.074 154.239C91.1777 153.58 91.7442 153.097 92.4098 153.097H93.2504C98.6959 153.097 102.959 150.886 104.205 144.488C104.725 141.815 104.456 139.584 103.079 138.014C102.662 137.541 102.145 137.148 101.54 136.828Z" fill="#179BD7"/>
<path d="M100.05 136.235C99.8323 136.172 99.6078 136.114 99.3775 136.062C99.146 136.012 98.9088 135.967 98.6647 135.927C97.8103 135.789 96.8741 135.724 95.8711 135.724H87.4052C87.1967 135.724 86.9987 135.771 86.8213 135.856C86.431 136.044 86.1408 136.413 86.0706 136.866L84.2696 148.273L84.2178 148.606C84.3364 147.855 84.9778 147.302 85.7389 147.302H88.9079C95.1318 147.302 100.005 144.775 101.429 137.462C101.472 137.246 101.508 137.035 101.54 136.829C101.18 136.638 100.789 136.474 100.369 136.335C100.265 136.301 100.158 136.267 100.05 136.235Z" fill="#222D65"/>
<path d="M86.0707 136.866C86.1409 136.413 86.4311 136.043 86.8214 135.857C86.9999 135.772 87.1968 135.724 87.4053 135.724H95.8712C96.8742 135.724 97.8103 135.79 98.6648 135.928C98.9089 135.967 99.1461 136.012 99.3776 136.063C99.6079 136.115 99.8324 136.172 100.05 136.236C100.158 136.268 100.265 136.301 100.37 136.335C100.79 136.474 101.181 136.639 101.541 136.829C101.965 134.126 101.538 132.286 100.077 130.62C98.4656 128.785 95.558 128 91.8374 128H81.0362C80.2762 128 79.6279 128.553 79.5105 129.305L75.0115 157.822C74.9228 158.386 75.3581 158.895 75.927 158.895H82.5954L84.2697 148.272L86.0707 136.866Z" fill="#253B80"/>
<rect x="0.5" y="0.5" width="293" height="293" stroke="#191919" stroke-opacity="0.5"/>
</svg>
