<svg width="294" height="294" viewBox="0 0 294 294" fill="none" xmlns="http://www.w3.org/2000/svg">
<path fill-rule="evenodd" clip-rule="evenodd" d="M162.064 138.766C159.866 138.766 158.126 139.222 156.386 140.226C156.386 135.206 156.386 130.552 156.569 129L145.855 130.917V131.829L146.954 132.012C148.419 132.286 148.877 133.107 149.152 135.024C149.427 138.857 149.335 159.028 149.152 162.405C151.991 163.044 155.013 163.5 158.035 163.5C166.459 163.5 171.496 158.298 171.496 150.083C171.587 143.512 167.466 138.766 162.064 138.766ZM158.401 161.675C157.76 161.675 156.936 161.675 156.478 161.492C156.295 159.302 156.203 149.992 156.295 141.778C157.21 141.504 157.851 141.321 158.676 141.321C162.155 141.321 164.078 145.429 164.078 150.448C164.078 156.837 161.697 161.675 158.401 161.675Z" fill="#33629A"/>
<path fill-rule="evenodd" clip-rule="evenodd" d="M105.93 129.639H78V131.099L79.5567 131.282C81.6629 131.555 82.3955 132.833 82.7618 135.845C83.2196 141.504 83.0365 151.817 82.7618 156.746C82.4871 159.758 81.6629 161.127 79.5567 161.309L78 161.583V162.861H95.9482V161.583L94.0252 161.309C91.919 161.127 91.1865 159.758 90.8202 156.746C90.637 154.647 90.5455 151.361 90.5455 147.254L94.3915 147.436C96.7724 147.436 97.8713 149.353 98.3291 152H99.7943V140.682H98.3291C97.8713 143.329 96.7724 145.246 94.3915 145.246L90.5455 145.428C90.5455 140.043 90.7286 135.024 90.8202 132.012H96.4061C100.71 132.012 102.908 134.659 104.465 139.405L106.021 138.948L105.93 129.639Z" fill="#33629A"/>
<path fill-rule="evenodd" clip-rule="evenodd" d="M114.904 138.492C122.871 138.492 126.808 143.877 126.808 150.996C126.808 157.75 122.413 163.5 114.446 163.5C106.479 163.5 102.541 158.115 102.541 150.996C102.541 144.151 107.029 138.492 114.904 138.492ZM114.446 140.044C110.966 140.044 110.05 144.79 110.05 150.905C110.05 156.929 111.607 161.766 114.812 161.766C118.475 161.766 119.391 157.02 119.391 150.905C119.391 144.972 117.834 140.044 114.446 140.044Z" fill="#33629A"/>
<path fill-rule="evenodd" clip-rule="evenodd" d="M173.602 151.087C173.602 144.607 177.723 138.401 185.781 138.401C192.466 138.401 195.579 143.329 195.579 149.81H180.836C180.653 155.651 183.492 159.941 189.261 159.941C191.825 159.941 193.107 159.302 194.664 158.206L195.305 159.028C193.748 161.218 190.268 163.409 185.781 163.409C178.73 163.5 173.602 158.389 173.602 151.087ZM180.928 148.167L188.345 147.984C188.345 144.79 187.887 140.044 185.14 140.044C182.484 140.044 181.111 144.516 180.928 148.167Z" fill="#33629A"/>
<path fill-rule="evenodd" clip-rule="evenodd" d="M214.535 139.77C212.612 138.948 210.139 138.492 207.209 138.492C201.348 138.492 197.685 141.96 197.685 146.068C197.685 150.175 200.341 151.909 204.187 153.187C208.125 154.647 209.224 155.742 209.224 157.568C209.224 159.484 207.758 161.218 205.286 161.218C202.264 161.218 200.066 159.484 198.326 154.738L197.228 155.012L197.411 161.948C199.334 162.77 202.814 163.409 205.835 163.409C212.062 163.409 216 160.214 216 155.377C216 152.091 214.26 150.175 210.139 148.623C205.744 146.889 204.096 145.794 204.096 143.695C204.096 141.595 205.561 140.226 207.392 140.226C210.231 140.226 212.154 141.96 213.619 146.25L214.718 145.976L214.535 139.77Z" fill="#33629A"/>
<path fill-rule="evenodd" clip-rule="evenodd" d="M147.412 139.131C144.756 137.58 139.995 138.31 137.431 144.06L137.614 138.492L126.991 140.591V141.504L128.09 141.687C129.555 141.869 130.196 142.599 130.288 144.699C130.563 148.532 130.471 155.103 130.288 158.48C130.105 160.397 129.464 161.31 128.09 161.492L126.991 161.675V162.953H141.735V161.675L139.812 161.492C138.255 161.31 137.705 160.397 137.614 158.48C137.339 155.468 137.339 149.445 137.431 145.703C138.255 144.607 141.735 143.603 144.848 145.703L147.412 139.131Z" fill="#33629A"/>
<rect x="0.5" y="0.5" width="293" height="293" stroke="#191919" stroke-opacity="0.5"/>
</svg>
