<svg width="176" height="17" viewBox="0 0 176 17" fill="none" xmlns="http://www.w3.org/2000/svg">
<path d="M6.61695 13.4254C7.12461 13.4254 7.58011 13.342 7.98346 13.175C8.38679 13.0012 8.72755 12.7578 9.00572 12.4448C9.28392 12.1319 9.49602 11.7529 9.64203 11.3078C9.78808 10.8628 9.8611 10.3621 9.8611 9.80569V0.792969H12.9905V9.80569C12.9905 10.7237 12.841 11.5686 12.542 12.3405C12.2499 13.1055 11.8292 13.7662 11.2798 14.3225C10.7304 14.8788 10.0628 15.3135 9.27695 15.6264C8.49113 15.9393 7.60446 16.0958 6.61695 16.0958C5.62941 16.0958 4.73928 15.9393 3.94649 15.6264C3.16067 15.3135 2.49307 14.8788 1.94366 14.3225C1.39427 13.7662 0.970064 13.1055 0.67103 12.3405C0.378949 11.5686 0.23291 10.7237 0.23291 9.80569V0.792969H3.36234V9.80569C3.36234 10.3621 3.43537 10.8628 3.58138 11.3078C3.72742 11.7529 3.93953 12.1319 4.2177 12.4448C4.4959 12.7578 4.83666 13.0012 5.23998 13.175C5.64334 13.342 6.10233 13.4254 6.61695 13.4254ZM24.3841 3.31738H19.9612V15.9289H16.8213V3.31738H12.3984V0.792969H24.3841V3.31738Z" fill="white"/>
<path d="M43.1386 14.6579C42.0941 15.6165 40.742 16.0958 39.0822 16.0958C37.4224 16.0958 36.0631 15.6165 35.0043 14.6579C33.9598 13.6848 33.4375 12.3899 33.4375 10.7731V0.792969H35.4335V10.6873C35.4335 11.7459 35.7483 12.5902 36.3779 13.2197C37.0074 13.8351 37.9089 14.1428 39.0822 14.1428C40.2555 14.1428 41.1569 13.8351 41.7865 13.2197C42.416 12.5902 42.7308 11.7459 42.7308 10.6873V0.792969H44.7054V10.7731C44.7054 12.3899 44.1831 13.6848 43.1386 14.6579ZM59.2993 15.8168H56.8526L50.3708 8.60536V15.8168H48.3749V0.792969H50.3708V7.57509L56.638 0.792969H59.0846L52.4527 8.09021L59.2993 15.8168ZM70.6007 15.8168L67.2312 10.0647H63.6897V15.8168H61.6938V0.792969H67.7034C68.9911 0.792969 70.0928 1.25089 71.0086 2.16652C71.9242 3.06795 72.3822 4.16262 72.3822 5.45035C72.3822 6.4234 72.0889 7.31043 71.5021 8.11163C70.9298 8.91304 70.1858 9.47818 69.2702 9.80726L72.8115 15.8168H70.6007ZM63.6897 2.66025V8.26186H67.7034C68.4473 8.26186 69.0769 7.98999 69.592 7.44646C70.1214 6.88831 70.3862 6.22294 70.3862 5.45035C70.3862 4.67775 70.1214 4.0196 69.592 3.47586C69.0769 2.93212 68.4473 2.66025 67.7034 2.66025H63.6897ZM85.0473 0.792969V2.68165H80.6043V15.8168H78.6298V2.68165H74.2085V0.792969H85.0473ZM89.6361 13.9281H96.6113V15.8168H87.64V0.792969H96.5041V2.68165H89.6361V7.29623H95.9675V9.16328H89.6361V13.9281ZM108.546 15.8168L105.176 10.0647H101.635V15.8168H99.6385V0.792969H105.648C106.936 0.792969 108.037 1.25089 108.953 2.16652C109.869 3.06795 110.327 4.16262 110.327 5.45035C110.327 6.4234 110.034 7.31043 109.447 8.11163C108.875 8.91304 108.13 9.47818 107.215 9.80726L110.756 15.8168H108.546ZM101.635 2.66025V8.26186H105.648C106.392 8.26186 107.022 7.98999 107.537 7.44646C108.066 6.88831 108.331 6.22294 108.331 5.45035C108.331 4.67775 108.066 4.0196 107.537 3.47586C107.022 2.93212 106.392 2.66025 105.648 2.66025H101.635ZM127.435 0.792969V15.8168H125.46V4.07681L120.545 12.2541H120.288L115.373 4.09821V15.8168H113.377V0.792969H115.63L120.416 8.73419L125.181 0.792969H127.435ZM131.265 0.792969H133.261V15.8168H131.265V0.792969ZM146.437 0.792969H148.433V15.8168H146.824L139.097 4.59193V15.8168H137.101V0.792969H138.711L146.437 11.9964V0.792969ZM162.159 15.8168L160.935 12.4471H154.175L152.951 15.8168H150.827L156.428 0.792969H158.682L164.284 15.8168H162.159ZM154.861 10.5798H160.249L157.544 3.17537L154.861 10.5798ZM168.669 13.9281H175.151V15.8168H166.673V0.792969H168.669V13.9281Z" fill="white"/>
</svg>
