<svg width="32" height="33" viewBox="0 0 32 33" fill="none" xmlns="http://www.w3.org/2000/svg">
<path d="M16 3.75C13.4783 3.75 11.0132 4.49777 8.91648 5.89876C6.81976 7.29975 5.18556 9.29103 4.22054 11.6208C3.25552 13.9505 3.00303 16.5141 3.49499 18.9874C3.98696 21.4607 5.20127 23.7325 6.98439 25.5156C8.76751 27.2987 11.0393 28.5131 13.5126 29.005C15.9859 29.497 18.5495 29.2445 20.8792 28.2795C23.209 27.3144 25.2003 25.6802 26.6012 23.5835C28.0022 21.4868 28.75 19.0217 28.75 16.5C28.746 13.1197 27.4015 9.879 25.0112 7.48877C22.621 5.09854 19.3803 3.75397 16 3.75ZM16 27.75C13.775 27.75 11.5999 27.0902 9.74984 25.854C7.89979 24.6179 6.45785 22.8609 5.60636 20.8052C4.75488 18.7495 4.53209 16.4875 4.96617 14.3052C5.40025 12.1229 6.47171 10.1184 8.04505 8.54505C9.6184 6.97171 11.623 5.90025 13.8052 5.46617C15.9875 5.03208 18.2495 5.25487 20.3052 6.10636C22.3609 6.95784 24.1179 8.39978 25.354 10.2498C26.5902 12.0999 27.25 14.275 27.25 16.5C27.2467 19.4827 26.0604 22.3422 23.9513 24.4513C21.8422 26.5604 18.9827 27.7467 16 27.75ZM21.53 17.97C21.6037 18.0387 21.6628 18.1215 21.7038 18.2135C21.7448 18.3055 21.7668 18.4048 21.7686 18.5055C21.7704 18.6062 21.7519 18.7062 21.7141 18.7996C21.6764 18.893 21.6203 18.9778 21.549 19.049C21.4778 19.1203 21.393 19.1764 21.2996 19.2141C21.2062 19.2518 21.1062 19.2704 21.0055 19.2686C20.9048 19.2668 20.8055 19.2448 20.7135 19.2038C20.6215 19.1628 20.5387 19.1037 20.47 19.03L16 14.5613L11.53 19.03C11.3878 19.1625 11.1998 19.2346 11.0055 19.2312C10.8112 19.2277 10.6258 19.149 10.4884 19.0116C10.351 18.8742 10.2723 18.6888 10.2688 18.4945C10.2654 18.3002 10.3375 18.1122 10.47 17.97L15.47 12.97C15.6106 12.8295 15.8013 12.7507 16 12.7507C16.1988 12.7507 16.3894 12.8295 16.53 12.97L21.53 17.97Z" fill="#DD5F43"/>
</svg>
