<svg width="25" height="24" viewBox="0 0 25 24" fill="none" xmlns="http://www.w3.org/2000/svg">
<path d="M21.6123 12C21.6123 12.1492 21.553 12.2923 21.4476 12.3977C21.3421 12.5032 21.199 12.5625 21.0498 12.5625H4.5498C4.40062 12.5625 4.25755 12.5032 4.15206 12.3977C4.04657 12.2923 3.9873 12.1492 3.9873 12C3.9873 11.8508 4.04657 11.7077 4.15206 11.6023C4.25755 11.4968 4.40062 11.4375 4.5498 11.4375H21.0498C21.199 11.4375 21.3421 11.4968 21.4476 11.6023C21.553 11.7077 21.6123 11.8508 21.6123 12ZM4.5498 6.5625H21.0498C21.199 6.5625 21.3421 6.50324 21.4476 6.39775C21.553 6.29226 21.6123 6.14918 21.6123 6C21.6123 5.85082 21.553 5.70774 21.4476 5.60225C21.3421 5.49676 21.199 5.4375 21.0498 5.4375H4.5498C4.40062 5.4375 4.25755 5.49676 4.15206 5.60225C4.04657 5.70774 3.9873 5.85082 3.9873 6C3.9873 6.14918 4.04657 6.29226 4.15206 6.39775C4.25755 6.50324 4.40062 6.5625 4.5498 6.5625ZM21.0498 17.4375H4.5498C4.40062 17.4375 4.25755 17.4968 4.15206 17.6023C4.04657 17.7077 3.9873 17.8508 3.9873 18C3.9873 18.1492 4.04657 18.2923 4.15206 18.3977C4.25755 18.5032 4.40062 18.5625 4.5498 18.5625H21.0498C21.199 18.5625 21.3421 18.5032 21.4476 18.3977C21.553 18.2923 21.6123 18.1492 21.6123 18C21.6123 17.8508 21.553 17.7077 21.4476 17.6023C21.3421 17.4968 21.199 17.4375 21.0498 17.4375Z" fill="#4B4B4B"/>
</svg>
