<svg width="20" height="21" viewBox="0 0 20 21" fill="none" xmlns="http://www.w3.org/2000/svg">
<path d="M19.375 8.62512C19.3751 8.75495 19.3347 8.88158 19.2595 8.98742C19.1844 9.09326 19.0781 9.17306 18.9555 9.21574L5 14.0697V17.3751C5 17.5409 4.93415 17.6999 4.81694 17.8171C4.69973 17.9343 4.54076 18.0001 4.375 18.0001C4.20924 18.0001 4.05027 17.9343 3.93306 17.8171C3.81585 17.6999 3.75 17.5409 3.75 17.3751V3.62512C3.74994 3.52536 3.77377 3.42703 3.81948 3.33836C3.86519 3.24969 3.93147 3.17325 4.01277 3.11543C4.09407 3.05761 4.18803 3.02009 4.28679 3.00601C4.38555 2.99193 4.48625 3.0017 4.58047 3.0345L18.9555 8.0345C19.0781 8.07718 19.1844 8.15698 19.2595 8.26282C19.3347 8.36866 19.3751 8.49529 19.375 8.62512Z" fill="#C84B31"/>
</svg>
