<svg width="32" height="32" viewBox="0 0 32 32" fill="none" xmlns="http://www.w3.org/2000/svg">
<path d="M24.7494 11.0003V24.0003C24.7494 24.1992 24.6703 24.39 24.5297 24.5307C24.389 24.6713 24.1983 24.7503 23.9994 24.7503H10.9994C10.8004 24.7503 10.6097 24.6713 10.469 24.5307C10.3284 24.39 10.2494 24.1992 10.2494 24.0003C10.2494 23.8014 10.3284 23.6107 10.469 23.47C10.6097 23.3294 10.8004 23.2503 10.9994 23.2503H22.1894L7.46936 8.53033C7.33688 8.38816 7.26476 8.20011 7.26818 8.00581C7.27161 7.81151 7.35032 7.62613 7.48774 7.48871C7.62515 7.3513 7.81053 7.27259 8.00484 7.26916C8.19914 7.26573 8.38718 7.33785 8.52936 7.47033L23.2494 22.1903V11.0003C23.2494 10.8014 23.3284 10.6107 23.469 10.47C23.6097 10.3294 23.8004 10.2503 23.9994 10.2503C24.1983 10.2503 24.389 10.3294 24.5297 10.47C24.6703 10.6107 24.7494 10.8014 24.7494 11.0003Z" fill="#DD5F43"/>
</svg>
