<svg width="24" height="24" viewBox="0 0 24 24" fill="none" xmlns="http://www.w3.org/2000/svg">
<path d="M17.9062 17.6719V20.4844C17.9062 21.7078 16.9073 22.5938 15.8067 22.5938C11.7563 22.5938 7.80469 20.6789 4.86563 17.7516C1.92656 14.8242 0 10.8844 0 6.83391C0 5.67047 0.946406 4.73438 2.10938 4.73438H4.92188C5.22469 4.73438 5.49328 4.92797 5.58844 5.21484L6.99469 9.42375C7.06359 9.63 7.03312 9.85594 6.91313 10.0364L5.72062 11.8256C6.1725 12.7734 6.97219 13.8094 7.89563 14.7216C8.81953 15.6333 9.86719 16.4213 10.815 16.8731L12.6042 15.6806C12.7856 15.5611 13.0106 15.5297 13.2169 15.5991L17.4356 17.0053C17.7225 17.1005 17.9062 17.3691 17.9062 17.6719Z" fill="#C84B31"/>
<path fill-rule="evenodd" clip-rule="evenodd" d="M19.0312 1.5C21.7449 1.5 24 3.70823 24 6.42188C24 9.13552 21.7449 11.3438 19.0312 11.3438H16.5099L13.9034 13.9502C13.7007 14.1529 13.3965 14.2109 13.1371 14.1027C12.8741 13.9942 12.7031 13.7374 12.7031 13.4531V11.2936C10.3212 10.9517 8.4375 8.89725 8.4375 6.42188C8.4375 3.70823 10.6926 1.5 13.4062 1.5H19.0312ZM16.2188 7.12491C16.6071 7.12491 16.9219 6.81011 16.9219 6.42178C16.9219 6.03346 16.6071 5.71866 16.2188 5.71866C15.8304 5.71866 15.5156 6.03346 15.5156 6.42178C15.5156 6.81011 15.8304 7.12491 16.2188 7.12491ZM13.4062 7.12495C13.7946 7.12495 14.1094 6.81015 14.1094 6.42183C14.1094 6.0335 13.7946 5.7187 13.4062 5.7187C13.0179 5.7187 12.7031 6.0335 12.7031 6.42183C12.7031 6.81015 13.0179 7.12495 13.4062 7.12495ZM19.7344 6.42181C19.7344 6.81014 19.4196 7.12494 19.0312 7.12494C18.6429 7.12494 18.3281 6.81014 18.3281 6.42181C18.3281 6.03349 18.6429 5.71869 19.0312 5.71869C19.4196 5.71869 19.7344 6.03349 19.7344 6.42181Z" fill="#C84B31"/>
</svg>
