<svg width="24" height="24" viewBox="0 0 24 24" fill="none" xmlns="http://www.w3.org/2000/svg">
<path d="M12 24C18.6274 24 24 18.6274 24 12C24 5.37258 18.6274 0 12 0C5.37258 0 0 5.37258 0 12C0 18.6274 5.37258 24 12 24Z" fill="white"/>
<path fill-rule="evenodd" clip-rule="evenodd" d="M5.43197 11.8733C8.9302 10.3492 11.2629 9.34439 12.4301 8.85895C15.7626 7.47286 16.4551 7.23206 16.9064 7.22409C17.0057 7.22236 17.2276 7.24697 17.3714 7.36364C17.5847 7.5367 17.5859 7.91236 17.5622 8.16098C17.3816 10.0585 16.6002 14.6632 16.2027 16.7884C16.0344 17.6876 15.7032 17.9892 15.3826 18.0187C14.6857 18.0828 14.1566 17.5581 13.4816 17.1157C12.4255 16.4234 11.8288 15.9924 10.8036 15.3168C9.61884 14.5361 10.3869 14.107 11.0621 13.4057C11.2388 13.2222 14.3092 10.4294 14.3686 10.176C14.376 10.1444 14.3829 10.0262 14.3128 9.96389C14.2426 9.90155 14.139 9.92283 14.0643 9.9398C13.9584 9.96384 12.2712 11.079 9.00267 13.2854C8.52375 13.6142 8.08997 13.7745 7.70133 13.7661C7.27284 13.7568 6.44868 13.5238 5.83598 13.3246C5.08448 13.0804 4.4872 12.9512 4.53923 12.5363C4.56633 12.3202 4.86389 12.0992 5.43197 11.8733Z" fill="#2AABEE"/>
</svg>
