<svg width="32" height="33" viewBox="0 0 32 33" fill="none" xmlns="http://www.w3.org/2000/svg">
<path d="M16 3.75C13.4783 3.75 11.0132 4.49777 8.91648 5.89876C6.81976 7.29975 5.18556 9.29103 4.22054 11.6208C3.25552 13.9505 3.00303 16.5141 3.49499 18.9874C3.98696 21.4607 5.20127 23.7325 6.98439 25.5156C8.76751 27.2987 11.0393 28.5131 13.5126 29.005C15.9859 29.497 18.5495 29.2445 20.8792 28.2795C23.209 27.3144 25.2003 25.6802 26.6012 23.5835C28.0022 21.4868 28.75 19.0217 28.75 16.5C28.746 13.1197 27.4015 9.879 25.0112 7.48877C22.621 5.09854 19.3803 3.75397 16 3.75ZM16 27.75C13.775 27.75 11.5999 27.0902 9.74984 25.854C7.89979 24.6179 6.45785 22.8609 5.60636 20.8052C4.75488 18.7495 4.53209 16.4875 4.96617 14.3052C5.40025 12.1229 6.47171 10.1184 8.04505 8.54505C9.6184 6.97171 11.623 5.90025 13.8052 5.46617C15.9875 5.03208 18.2495 5.25487 20.3052 6.10636C22.3609 6.95784 24.1179 8.39978 25.354 10.2498C26.5902 12.0999 27.25 14.275 27.25 16.5C27.2467 19.4827 26.0604 22.3422 23.9513 24.4513C21.8422 26.5604 18.9827 27.7467 16 27.75ZM21.53 13.97C21.6705 14.1106 21.7493 14.3012 21.7493 14.5C21.7493 14.6988 21.6705 14.8894 21.53 15.03L16.53 20.03C16.3894 20.1705 16.1988 20.2493 16 20.2493C15.8013 20.2493 15.6106 20.1705 15.47 20.03L10.47 15.03C10.3375 14.8878 10.2654 14.6998 10.2688 14.5055C10.2723 14.3112 10.351 14.1258 10.4884 13.9884C10.6258 13.851 10.8112 13.7723 11.0055 13.7688C11.1998 13.7654 11.3878 13.8375 11.53 13.97L16 18.4387L20.47 13.97C20.6106 13.8295 20.8013 13.7507 21 13.7507C21.1988 13.7507 21.3894 13.8295 21.53 13.97Z" fill="#DD5F43"/>
</svg>
