<svg width="16" height="17" viewBox="0 0 16 17" fill="none" xmlns="http://www.w3.org/2000/svg">
<path d="M8.6665 3.83317C8.6665 3.46498 8.36803 3.1665 7.99984 3.1665C7.63165 3.1665 7.33317 3.46498 7.33317 3.83317V7.83311L3.33317 7.83311C2.96498 7.83311 2.6665 8.13159 2.6665 8.49977C2.6665 8.86796 2.96498 9.16644 3.33317 9.16644L7.33317 9.16644V13.1665C7.33317 13.5347 7.63165 13.8332 7.99984 13.8332C8.36803 13.8332 8.6665 13.5347 8.6665 13.1665V9.16644L12.6665 9.16644C13.0347 9.16644 13.3332 8.86797 13.3332 8.49978C13.3332 8.13159 13.0347 7.83311 12.6665 7.83311L8.6665 7.83311V3.83317Z" fill="white"/>
</svg>
