<svg width="32" height="32" viewBox="0 0 32 32" fill="none" xmlns="http://www.w3.org/2000/svg">
<path d="M24.7503 10.9998V23.9998C24.7503 24.1988 24.6713 24.3895 24.5307 24.5302C24.39 24.6708 24.1992 24.7498 24.0003 24.7498H11.0003C10.8014 24.7498 10.6107 24.6708 10.47 24.5302C10.3294 24.3895 10.2503 24.1988 10.2503 23.9998C10.2503 23.8009 10.3294 23.6102 10.47 23.4695C10.6107 23.3289 10.8014 23.2498 11.0003 23.2498H22.1903L7.47033 8.52985C7.33785 8.38767 7.26573 8.19963 7.26916 8.00532C7.27259 7.81102 7.3513 7.62564 7.48871 7.48822C7.62613 7.35081 7.81151 7.2721 8.00581 7.26867C8.20011 7.26524 8.38816 7.33737 8.53033 7.46985L23.2503 22.1898V10.9998C23.2503 10.8009 23.3294 10.6102 23.47 10.4695C23.6107 10.3289 23.8014 10.2498 24.0003 10.2498C24.1992 10.2498 24.39 10.3289 24.5307 10.4695C24.6713 10.6102 24.7503 10.8009 24.7503 10.9998Z" fill="#DD5F43"/>
</svg>
