<svg width="12" height="12" viewBox="0 0 12 12" fill="none" xmlns="http://www.w3.org/2000/svg">
<path d="M6 12C9.31371 12 12 9.31371 12 6C12 2.68629 9.31371 0 6 0C2.68629 0 0 2.68629 0 6C0 9.31371 2.68629 12 6 12Z" fill="white"/>
<path fill-rule="evenodd" clip-rule="evenodd" d="M2.71598 5.93667C4.4651 5.1746 5.63147 4.67219 6.21504 4.42948C7.8813 3.73643 8.22755 3.61603 8.4532 3.61205C8.50284 3.61118 8.61382 3.62348 8.6857 3.68182C8.79234 3.76835 8.79295 3.95618 8.78112 4.08049C8.69081 5.02924 8.30011 7.33158 8.10133 8.39419C8.01722 8.84381 7.85161 8.99459 7.6913 9.00933C7.34287 9.04139 7.07829 8.77905 6.74081 8.55785C6.21274 8.21168 5.9144 7.99619 5.4018 7.65841C4.80942 7.26804 5.19344 7.05349 5.53104 6.70284C5.6194 6.61109 7.15458 5.2147 7.1843 5.08802C7.18802 5.07218 7.19147 5.01312 7.15638 4.98194C7.1213 4.95077 7.06952 4.96141 7.03216 4.9699C6.97919 4.98192 6.13558 5.53952 4.50133 6.64268C4.26187 6.80712 4.04498 6.88723 3.85066 6.88303C3.63642 6.87841 3.22434 6.76191 2.91799 6.66232C2.54224 6.54019 2.2436 6.47559 2.26962 6.26817C2.28316 6.1601 2.43194 6.04962 2.71598 5.93667Z" fill="#2AABEE"/>
</svg>
