<svg width="12" height="12" viewBox="0 0 12 12" fill="none" xmlns="http://www.w3.org/2000/svg">
<path d="M11.5955 4.17891L9.86109 9.49126C9.84365 9.5448 9.81437 9.59373 9.77544 9.63442C9.7365 9.6751 9.6889 9.70649 9.63617 9.72626C9.58344 9.74603 9.52693 9.75367 9.47084 9.74861C9.41475 9.74355 9.36053 9.72592 9.31219 9.69704C9.3014 9.69048 8.10281 9.00001 5.99906 9.00001C3.89531 9.00001 2.69672 9.69048 2.685 9.69751C2.63667 9.72612 2.58254 9.74351 2.52659 9.74839C2.47065 9.75328 2.41432 9.74554 2.36176 9.72574C2.30921 9.70594 2.26177 9.67459 2.22296 9.63401C2.18414 9.59342 2.15494 9.54464 2.1375 9.49126L0.404061 4.17751C0.369134 4.07114 0.366443 3.95681 0.396325 3.84891C0.426207 3.74102 0.487328 3.64437 0.572 3.57112C0.656672 3.49787 0.761114 3.45129 0.872189 3.43725C0.983263 3.42321 1.09601 3.44232 1.19625 3.4922L3.5489 4.66407L5.5139 1.39876C5.56442 1.315 5.63571 1.24572 5.72088 1.19763C5.80604 1.14954 5.90219 1.12427 6 1.12427C6.0978 1.12427 6.19395 1.14954 6.27912 1.19763C6.36428 1.24572 6.43558 1.315 6.48609 1.39876L8.45109 4.66407L10.8047 3.4922C10.905 3.44225 11.0179 3.42316 11.1291 3.43734C11.2403 3.45151 11.3448 3.49832 11.4294 3.57185C11.5141 3.64537 11.575 3.74232 11.6045 3.85045C11.6341 3.95858 11.6309 4.07304 11.5955 4.17938V4.17891Z" fill="#F5C95C"/>
</svg>
