<svg width="32" height="32" viewBox="0 0 32 32" fill="none" xmlns="http://www.w3.org/2000/svg">
<path d="M24.7498 10.9998V23.9998C24.7498 24.1988 24.6708 24.3895 24.5302 24.5302C24.3895 24.6708 24.1988 24.7498 23.9998 24.7498H10.9998C10.8009 24.7498 10.6102 24.6708 10.4695 24.5302C10.3289 24.3895 10.2498 24.1988 10.2498 23.9998C10.2498 23.8009 10.3289 23.6102 10.4695 23.4695C10.6102 23.3289 10.8009 23.2498 10.9998 23.2498H22.1898L7.46985 8.52985C7.33737 8.38767 7.26524 8.19963 7.26867 8.00532C7.2721 7.81102 7.35081 7.62564 7.48822 7.48822C7.62564 7.35081 7.81102 7.2721 8.00532 7.26867C8.19963 7.26524 8.38767 7.33737 8.52985 7.46985L23.2498 22.1898V10.9998C23.2498 10.8009 23.3289 10.6102 23.4695 10.4695C23.6102 10.3289 23.8009 10.2498 23.9998 10.2498C24.1988 10.2498 24.3895 10.3289 24.5302 10.4695C24.6708 10.6102 24.7498 10.8009 24.7498 10.9998Z" fill="#DD5F43"/>
</svg>
