<svg width="12" height="12" viewBox="0 0 12 12" fill="none" xmlns="http://www.w3.org/2000/svg">
<path d="M11.5957 4.17891L9.86134 9.49126C9.8439 9.5448 9.81462 9.59373 9.77568 9.63442C9.73674 9.6751 9.68914 9.70649 9.63641 9.72626C9.58368 9.74603 9.52717 9.75367 9.47109 9.74861C9.415 9.74355 9.36077 9.72592 9.31243 9.69704C9.30165 9.69048 8.10306 9.00001 5.99931 9.00001C3.89555 9.00001 2.69696 9.69048 2.68524 9.69751C2.63692 9.72612 2.58278 9.74351 2.52684 9.74839C2.47089 9.75328 2.41456 9.74554 2.36201 9.72574C2.30945 9.70594 2.26202 9.67459 2.2232 9.63401C2.18439 9.59343 2.15518 9.54464 2.13774 9.49126L0.404305 4.17751C0.369378 4.07114 0.366687 3.95681 0.396569 3.84891C0.426451 3.74102 0.487572 3.64437 0.572244 3.57112C0.656917 3.49787 0.761358 3.45129 0.872433 3.43725C0.983508 3.42321 1.09625 3.44232 1.19649 3.4922L3.54915 4.66407L5.51415 1.39876C5.56466 1.315 5.63596 1.24572 5.72112 1.19763C5.80629 1.14954 5.90244 1.12427 6.00024 1.12427C6.09805 1.12427 6.1942 1.14954 6.27936 1.19763C6.36453 1.24572 6.43582 1.315 6.48634 1.39876L8.45134 4.66407L10.8049 3.4922C10.9053 3.44225 11.0182 3.42316 11.1294 3.43734C11.2406 3.45151 11.3451 3.49832 11.4297 3.57185C11.5143 3.64537 11.5752 3.74232 11.6048 3.85045C11.6343 3.95858 11.6312 4.07304 11.5957 4.17938V4.17891Z" fill="#F5C95C"/>
</svg>
