<svg width="15" height="14" viewBox="0 0 15 14" fill="none" xmlns="http://www.w3.org/2000/svg">
<path d="M12.2071 5.48199L7.83209 9.85699C7.77057 9.91844 7.68717 9.95295 7.60021 9.95295C7.51326 9.95295 7.42986 9.91844 7.36834 9.85699L2.99334 5.48199C2.93538 5.41979 2.90382 5.33752 2.90532 5.25251C2.90682 5.16751 2.94126 5.0864 3.00138 5.02628C3.0615 4.96616 3.1426 4.93173 3.22761 4.93023C3.31262 4.92873 3.39489 4.96028 3.45709 5.01824L7.60021 9.16082L11.7433 5.01824C11.8055 4.96028 11.8878 4.92873 11.9728 4.93023C12.0578 4.93173 12.1389 4.96616 12.199 5.02628C12.2592 5.0864 12.2936 5.16751 12.2951 5.25251C12.2966 5.33752 12.2651 5.41979 12.2071 5.48199Z" fill="#4B4B4B"/>
</svg>
