<svg width="49" height="49" viewBox="0 0 49 49" fill="none" xmlns="http://www.w3.org/2000/svg">
<path d="M30.265 24.7649L25.765 29.2649C25.6939 29.3312 25.5999 29.3672 25.5027 29.3655C25.4056 29.3638 25.3129 29.3244 25.2442 29.2557C25.1755 29.187 25.1361 29.0943 25.1344 28.9972C25.1327 28.9 25.1688 28.806 25.235 28.7349L29.0944 24.8749H19C18.9005 24.8749 18.8052 24.8354 18.7348 24.7651C18.6645 24.6948 18.625 24.5994 18.625 24.4999C18.625 24.4005 18.6645 24.3051 18.7348 24.2348C18.8052 24.1644 18.9005 24.1249 19 24.1249H29.0944L25.235 20.2649C25.1688 20.1938 25.1327 20.0998 25.1344 20.0027C25.1361 19.9055 25.1755 19.8128 25.2442 19.7441C25.3129 19.6754 25.4056 19.636 25.5027 19.6343C25.5999 19.6326 25.6939 19.6687 25.765 19.7349L30.265 24.2349C30.3352 24.3052 30.3747 24.4005 30.3747 24.4999C30.3747 24.5993 30.3352 24.6946 30.265 24.7649Z" fill="#4B4B4B"/>
</svg>
