<svg width="49" height="49" viewBox="0 0 49 49" fill="none" xmlns="http://www.w3.org/2000/svg">
<path d="M30.375 24.4999C30.375 24.5994 30.3355 24.6948 30.2652 24.7651C30.1949 24.8354 30.0995 24.8749 30 24.8749H19.9057L23.765 28.7349C23.8019 28.7693 23.8314 28.8107 23.8519 28.8567C23.8724 28.9027 23.8834 28.9523 23.8843 29.0027C23.8852 29.053 23.876 29.103 23.8571 29.1497C23.8382 29.1964 23.8102 29.2388 23.7746 29.2744C23.7389 29.3101 23.6965 29.3381 23.6498 29.357C23.6031 29.3758 23.5531 29.3851 23.5028 29.3842C23.4524 29.3833 23.4028 29.3723 23.3568 29.3518C23.3108 29.3313 23.2694 29.3018 23.235 29.2649L18.735 24.7649C18.6648 24.6946 18.6254 24.5993 18.6254 24.4999C18.6254 24.4005 18.6648 24.3052 18.735 24.2349L23.235 19.7349C23.3061 19.6687 23.4001 19.6326 23.4973 19.6343C23.5944 19.636 23.6871 19.6754 23.7558 19.7441C23.8246 19.8128 23.8639 19.9055 23.8656 20.0027C23.8673 20.0998 23.8313 20.1938 23.765 20.2649L19.9057 24.1249H30C30.0995 24.1249 30.1949 24.1644 30.2652 24.2348C30.3355 24.3051 30.375 24.4005 30.375 24.4999Z" fill="#4B4B4B"/>
</svg>
