<svg width="100" height="100" viewBox="0 0 100 100" fill="none" xmlns="http://www.w3.org/2000/svg">
<path d="M45.3125 28.125V62.5C45.3073 67.4712 43.3302 72.2374 39.815 75.7525C36.2999 79.2677 31.5337 81.2448 26.5625 81.25C25.7337 81.25 24.9388 80.9208 24.3528 80.3347C23.7667 79.7487 23.4375 78.9538 23.4375 78.125C23.4375 77.2962 23.7667 76.5013 24.3528 75.9153C24.9388 75.3292 25.7337 75 26.5625 75C29.8777 75 33.0571 73.683 35.4013 71.3388C37.7455 68.9946 39.0625 65.8152 39.0625 62.5V59.375H15.625C13.9674 59.375 12.3777 58.7165 11.2056 57.5444C10.0335 56.3723 9.375 54.7826 9.375 53.125V28.125C9.375 26.4674 10.0335 24.8777 11.2056 23.7056C12.3777 22.5335 13.9674 21.875 15.625 21.875H39.0625C40.7201 21.875 42.3098 22.5335 43.4819 23.7056C44.654 24.8777 45.3125 26.4674 45.3125 28.125ZM84.375 21.875H60.9375C59.2799 21.875 57.6902 22.5335 56.5181 23.7056C55.346 24.8777 54.6875 26.4674 54.6875 28.125V53.125C54.6875 54.7826 55.346 56.3723 56.5181 57.5444C57.6902 58.7165 59.2799 59.375 60.9375 59.375H84.375V62.5C84.375 65.8152 83.058 68.9946 80.7138 71.3388C78.3696 73.683 75.1902 75 71.875 75C71.0462 75 70.2513 75.3292 69.6653 75.9153C69.0792 76.5013 68.75 77.2962 68.75 78.125C68.75 78.9538 69.0792 79.7487 69.6653 80.3347C70.2513 80.9208 71.0462 81.25 71.875 81.25C76.8462 81.2448 81.6124 79.2677 85.1275 75.7525C88.6427 72.2374 90.6198 67.4712 90.625 62.5V28.125C90.625 26.4674 89.9665 24.8777 88.7944 23.7056C87.6223 22.5335 86.0326 21.875 84.375 21.875Z" fill="#191919" fill-opacity="0.05"/>
</svg>
