<svg width="100" height="101" viewBox="0 0 100 101" fill="none" xmlns="http://www.w3.org/2000/svg">
<path d="M45.3125 28.625V63C45.3073 67.9712 43.3302 72.7374 39.815 76.2525C36.2999 79.7677 31.5337 81.7448 26.5625 81.75C25.7337 81.75 24.9388 81.4208 24.3528 80.8347C23.7667 80.2487 23.4375 79.4538 23.4375 78.625C23.4375 77.7962 23.7667 77.0013 24.3528 76.4153C24.9388 75.8292 25.7337 75.5 26.5625 75.5C29.8777 75.5 33.0571 74.183 35.4013 71.8388C37.7455 69.4946 39.0625 66.3152 39.0625 63V59.875H15.625C13.9674 59.875 12.3777 59.2165 11.2056 58.0444C10.0335 56.8723 9.375 55.2826 9.375 53.625V28.625C9.375 26.9674 10.0335 25.3777 11.2056 24.2056C12.3777 23.0335 13.9674 22.375 15.625 22.375H39.0625C40.7201 22.375 42.3098 23.0335 43.4819 24.2056C44.654 25.3777 45.3125 26.9674 45.3125 28.625ZM84.375 22.375H60.9375C59.2799 22.375 57.6902 23.0335 56.5181 24.2056C55.346 25.3777 54.6875 26.9674 54.6875 28.625V53.625C54.6875 55.2826 55.346 56.8723 56.5181 58.0444C57.6902 59.2165 59.2799 59.875 60.9375 59.875H84.375V63C84.375 66.3152 83.058 69.4946 80.7138 71.8388C78.3696 74.183 75.1902 75.5 71.875 75.5C71.0462 75.5 70.2513 75.8292 69.6653 76.4153C69.0792 77.0013 68.75 77.7962 68.75 78.625C68.75 79.4538 69.0792 80.2487 69.6653 80.8347C70.2513 81.4208 71.0462 81.75 71.875 81.75C76.8462 81.7448 81.6124 79.7677 85.1275 76.2525C88.6427 72.7374 90.6198 67.9712 90.625 63V28.625C90.625 26.9674 89.9665 25.3777 88.7944 24.2056C87.6223 23.0335 86.0326 22.375 84.375 22.375Z" fill="#191919" fill-opacity="0.05"/>
</svg>
