<svg width="24" height="24" viewBox="0 0 24 24" fill="none" xmlns="http://www.w3.org/2000/svg">
<path d="M18.5626 8.24964V17.9996C18.5626 18.1488 18.5034 18.2919 18.3979 18.3974C18.2924 18.5029 18.1493 18.5621 18.0001 18.5621H8.25013C8.10095 18.5621 7.95787 18.5029 7.85238 18.3974C7.74689 18.2919 7.68763 18.1488 7.68763 17.9996C7.68763 17.8505 7.74689 17.7074 7.85238 17.6019C7.95787 17.4964 8.10095 17.4371 8.25013 17.4371H16.6426L5.60263 6.39714C5.50327 6.29051 5.44918 6.14948 5.45175 6.00375C5.45432 5.85802 5.51335 5.71898 5.61641 5.61592C5.71947 5.51286 5.85851 5.45383 6.00424 5.45126C6.14996 5.44869 6.291 5.50278 6.39763 5.60214L17.4376 16.6421V8.24964C17.4376 8.10046 17.4969 7.95738 17.6024 7.85189C17.7079 7.7464 17.8509 7.68714 18.0001 7.68714C18.1493 7.68714 18.2924 7.7464 18.3979 7.85189C18.5034 7.95738 18.5626 8.10046 18.5626 8.24964Z" fill="#DD5F43"/>
</svg>
