<svg width="24" height="24" viewBox="0 0 24 24" fill="none" xmlns="http://www.w3.org/2000/svg">
<path d="M18.5624 8.24964V17.9996C18.5624 18.1488 18.5031 18.2919 18.3976 18.3974C18.2921 18.5029 18.1491 18.5621 17.9999 18.5621H8.24989C8.1007 18.5621 7.95763 18.5029 7.85214 18.3974C7.74665 18.2919 7.68739 18.1488 7.68739 17.9996C7.68739 17.8505 7.74665 17.7074 7.85214 17.6019C7.95763 17.4964 8.1007 17.4371 8.24989 17.4371H16.6424L5.60238 6.39714C5.50302 6.29051 5.44893 6.14948 5.4515 6.00375C5.45407 5.85802 5.51311 5.71898 5.61617 5.61592C5.71923 5.51286 5.85827 5.45383 6.00399 5.45126C6.14972 5.44869 6.29075 5.50278 6.39738 5.60214L17.4374 16.6421V8.24964C17.4374 8.10046 17.4967 7.95738 17.6021 7.85189C17.7076 7.7464 17.8507 7.68714 17.9999 7.68714C18.1491 7.68714 18.2921 7.7464 18.3976 7.85189C18.5031 7.95738 18.5624 8.10046 18.5624 8.24964Z" fill="#DD5F43"/>
</svg>
