<svg width="10" height="10" viewBox="0 0 10 10" fill="none" xmlns="http://www.w3.org/2000/svg">
<path d="M5.58731 5.00008L8.21231 2.37924C8.29077 2.30078 8.33485 2.19437 8.33485 2.08341C8.33485 1.97245 8.29077 1.86604 8.21231 1.78758C8.13385 1.70912 8.02744 1.66504 7.91648 1.66504C7.80552 1.66504 7.69911 1.70912 7.62065 1.78758L4.99981 4.41258L2.37898 1.78758C2.30052 1.70912 2.1941 1.66504 2.08315 1.66504C1.97219 1.66504 1.86577 1.70912 1.78731 1.78758C1.70885 1.86604 1.66477 1.97245 1.66477 2.08341C1.66477 2.19437 1.70885 2.30078 1.78731 2.37924L4.41231 5.00008L1.78731 7.62091C1.74826 7.65965 1.71726 7.70573 1.69611 7.7565C1.67495 7.80728 1.66406 7.86174 1.66406 7.91674C1.66406 7.97175 1.67495 8.02621 1.69611 8.07698C1.71726 8.12776 1.74826 8.17384 1.78731 8.21258C1.82605 8.25163 1.87213 8.28263 1.9229 8.30378C1.97368 8.32494 2.02814 8.33583 2.08315 8.33583C2.13815 8.33583 2.19261 8.32494 2.24339 8.30378C2.29416 8.28263 2.34024 8.25163 2.37898 8.21258L4.99981 5.58758L7.62065 8.21258C7.65938 8.25163 7.70546 8.28263 7.75624 8.30378C7.80701 8.32494 7.86147 8.33583 7.91648 8.33583C7.97148 8.33583 8.02594 8.32494 8.07672 8.30378C8.12749 8.28263 8.17358 8.25163 8.21231 8.21258C8.25137 8.17384 8.28236 8.12776 8.30352 8.07698C8.32467 8.02621 8.33556 7.97175 8.33556 7.91674C8.33556 7.86174 8.32467 7.80728 8.30352 7.7565C8.28236 7.70573 8.25137 7.65965 8.21231 7.62091L5.58731 5.00008Z" fill="#727272"/>
</svg>
