<svg width="12" height="12" viewBox="0 0 12 12" fill="none" xmlns="http://www.w3.org/2000/svg">
<path d="M11.2497 6.37496V9.37496C11.2497 9.47442 11.2102 9.5698 11.1399 9.64013C11.0696 9.71046 10.9742 9.74996 10.8747 9.74996H7.87472C7.80051 9.75002 7.72795 9.72806 7.66623 9.68686C7.6045 9.64566 7.55639 9.58707 7.52799 9.51851C7.49958 9.44995 7.49215 9.37451 7.50665 9.30172C7.52114 9.22894 7.5569 9.1621 7.60941 9.10965L8.84456 7.87496L6.37472 5.40512L4.76503 7.01528C4.73021 7.05014 4.68885 7.0778 4.64332 7.09667C4.5978 7.11555 4.549 7.12526 4.49972 7.12526C4.45044 7.12526 4.40164 7.11555 4.35612 7.09667C4.31059 7.0778 4.26923 7.05014 4.23441 7.01528L0.859408 3.64028C0.789043 3.56991 0.749512 3.47448 0.749512 3.37496C0.749512 3.27545 0.789043 3.18002 0.859408 3.10965C0.929773 3.03929 1.02521 2.99976 1.12472 2.99976C1.22423 2.99976 1.31967 3.03929 1.39003 3.10965L4.49972 6.21981L6.10941 4.60965C6.14424 4.57479 6.18559 4.54713 6.23112 4.52825C6.27664 4.50938 6.32544 4.49967 6.37472 4.49967C6.424 4.49967 6.4728 4.50938 6.51832 4.52825C6.56385 4.54713 6.60521 4.57479 6.64003 4.60965L9.37472 7.34481L10.6094 6.10965C10.6619 6.05715 10.7287 6.02138 10.8015 6.00689C10.8743 5.9924 10.9497 5.99982 11.0183 6.02823C11.0868 6.05664 11.1454 6.10475 11.1866 6.16647C11.2278 6.22819 11.2498 6.30075 11.2497 6.37496Z" fill="white"/>
</svg>
