<svg width="25" height="17" viewBox="0 0 25 17" fill="none" xmlns="http://www.w3.org/2000/svg">
<path d="M6.61695 13.4254C7.12461 13.4254 7.58011 13.342 7.98346 13.175C8.38679 13.0012 8.72755 12.7578 9.00572 12.4448C9.28392 12.1319 9.49602 11.7529 9.64203 11.3078C9.78808 10.8628 9.8611 10.3621 9.8611 9.80569V0.792969H12.9905V9.80569C12.9905 10.7237 12.841 11.5686 12.542 12.3405C12.2499 13.1055 11.8292 13.7662 11.2798 14.3225C10.7304 14.8788 10.0628 15.3135 9.27695 15.6264C8.49113 15.9393 7.60446 16.0958 6.61695 16.0958C5.62941 16.0958 4.73928 15.9393 3.94649 15.6264C3.16067 15.3135 2.49307 14.8788 1.94366 14.3225C1.39427 13.7662 0.970064 13.1055 0.67103 12.3405C0.378949 11.5686 0.23291 10.7237 0.23291 9.80569V0.792969H3.36234V9.80569C3.36234 10.3621 3.43537 10.8628 3.58138 11.3078C3.72742 11.7529 3.93953 12.1319 4.2177 12.4448C4.4959 12.7578 4.83666 13.0012 5.23998 13.175C5.64334 13.342 6.10233 13.4254 6.61695 13.4254ZM24.3841 3.31738H19.9612V15.9289H16.8213V3.31738H12.3984V0.792969H24.3841V3.31738Z" fill="white"/>
</svg>
