<svg width="143" height="17" viewBox="0 0 143 17" fill="none" xmlns="http://www.w3.org/2000/svg">
<path d="M10.1386 14.6579C9.0941 15.6165 7.74195 16.0958 6.08217 16.0958C4.42238 16.0958 3.06309 15.6165 2.00426 14.6579C0.959753 13.6848 0.4375 12.3899 0.4375 10.7731V0.792969H2.43351V10.6873C2.43351 11.7459 2.74831 12.5902 3.37787 13.2197C4.00743 13.8351 4.90886 14.1428 6.08217 14.1428C7.25547 14.1428 8.1569 13.8351 8.78646 13.2197C9.41602 12.5902 9.73082 11.7459 9.73082 10.6873V0.792969H11.7054V10.7731C11.7054 12.3899 11.1831 13.6848 10.1386 14.6579ZM26.2993 15.8168H23.8526L17.3708 8.60536V15.8168H15.3749V0.792969H17.3708V7.57509L23.638 0.792969H26.0846L19.4527 8.09021L26.2993 15.8168ZM37.6007 15.8168L34.2312 10.0647H30.6897V15.8168H28.6938V0.792969H34.7034C35.9911 0.792969 37.0928 1.25089 38.0086 2.16652C38.9242 3.06795 39.3822 4.16262 39.3822 5.45035C39.3822 6.4234 39.0889 7.31043 38.5021 8.11163C37.9298 8.91304 37.1858 9.47818 36.2702 9.80726L39.8115 15.8168H37.6007ZM30.6897 2.66025V8.26186H34.7034C35.4473 8.26186 36.0769 7.98999 36.592 7.44646C37.1214 6.88831 37.3862 6.22294 37.3862 5.45035C37.3862 4.67775 37.1214 4.0196 36.592 3.47586C36.0769 2.93212 35.4473 2.66025 34.7034 2.66025H30.6897ZM52.0473 0.792969V2.68165H47.6043V15.8168H45.6298V2.68165H41.2085V0.792969H52.0473ZM56.6361 13.9281H63.6113V15.8168H54.64V0.792969H63.5041V2.68165H56.6361V7.29623H62.9675V9.16328H56.6361V13.9281ZM75.5456 15.8168L72.1759 10.0647H68.6346V15.8168H66.6385V0.792969H72.648C73.9358 0.792969 75.0375 1.25089 75.9533 2.16652C76.8689 3.06795 77.3268 4.16262 77.3268 5.45035C77.3268 6.4234 77.0336 7.31043 76.447 8.11163C75.8747 8.91304 75.1305 9.47818 74.2148 9.80726L77.7561 15.8168H75.5456ZM68.6346 2.66025V8.26186H72.648C73.392 8.26186 74.0216 7.98999 74.5367 7.44646C75.0661 6.88831 75.3309 6.22294 75.3309 5.45035C75.3309 4.67775 75.0661 4.0196 74.5367 3.47586C74.0216 2.93212 73.392 2.66025 72.648 2.66025H68.6346ZM94.4347 0.792969V15.8168H92.4602V4.07681L87.5451 12.2541H87.2877L82.3726 4.09821V15.8168H80.3767V0.792969H82.6303L87.4163 8.73419L92.1811 0.792969H94.4347ZM98.2647 0.792969H100.261V15.8168H98.2647V0.792969ZM113.437 0.792969H115.433V15.8168H113.824L106.097 4.59193V15.8168H104.101V0.792969H105.711L113.437 11.9964V0.792969ZM129.159 15.8168L127.935 12.4471H121.175L119.951 15.8168H117.827L123.428 0.792969H125.682L131.284 15.8168H129.159ZM121.861 10.5798H127.249L124.544 3.17537L121.861 10.5798ZM135.669 13.9281H142.151V15.8168H133.673V0.792969H135.669V13.9281Z" fill="white"/>
</svg>
