<svg width="24" height="16" viewBox="0 0 24 16" fill="none" xmlns="http://www.w3.org/2000/svg">
<path d="M6.72095 12.6198C7.1918 12.6198 7.61426 12.5424 7.98837 12.3876C8.36245 12.2264 8.6785 12.0006 8.9365 11.7103C9.19453 11.4201 9.39126 11.0686 9.52668 10.6558C9.66214 10.243 9.72986 9.77858 9.72986 9.26256V0.90332H12.6324V9.26256C12.6324 10.114 12.4937 10.8976 12.2164 11.6136C11.9455 12.3231 11.5552 12.9359 11.0457 13.4519C10.5361 13.9679 9.91692 14.371 9.18807 14.6612C8.45922 14.9515 7.63685 15.0966 6.72095 15.0966C5.80501 15.0966 4.97942 14.9515 4.24412 14.6612C3.51527 14.371 2.89608 13.9679 2.38651 13.4519C1.87696 12.9359 1.48351 12.3231 1.20616 11.6136C0.935254 10.8976 0.799805 10.114 0.799805 9.26256V0.90332H3.70233V9.26256C3.70233 9.77858 3.77005 10.243 3.90548 10.6558C4.04093 11.0686 4.23766 11.4201 4.49566 11.7103C4.75368 12.0006 5.06974 12.2264 5.44382 12.3876C5.81793 12.5424 6.24364 12.6198 6.72095 12.6198ZM23.1998 3.24469H19.0976V14.9418H16.1854V3.24469H12.0832V0.90332H23.1998V3.24469Z" fill="white"/>
</svg>
